<svg xmlns="http://www.w3.org/2000/svg" xmlns:xlink="http://www.w3.org/1999/xlink" width="465" zoomAndPan="magnify" viewBox="0 0 348.75 117.749996" height="157" preserveAspectRatio="xMidYMid meet" version="1.0"><defs><clipPath id="c7fc4bb929"><path d="M 0.246094 0 L 45 0 L 45 116.753906 L 0.246094 116.753906 Z M 0.246094 0 " clip-rule="nonzero"/></clipPath><clipPath id="81b590d9d1"><path d="M 308 35 L 348.253906 35 L 348.253906 82 L 308 82 Z M 308 35 " clip-rule="nonzero"/></clipPath></defs><g clip-path="url(#c7fc4bb929)"><path fill="#ffffff" d="M 4.375 117.257812 L 0.339844 116.277344 C 1.5625 113.132812 3.261719 112.214844 6.328125 113.035156 C 12.921875 114.824219 19.21875 112.101562 21.554688 105.710938 C 23.523438 100.339844 24.699219 94.667969 26.042969 89.085938 C 26.824219 85.808594 27.359375 82.488281 27.644531 79.132812 C 25.589844 81.820312 23.597656 84.558594 21.457031 87.167969 C 20.46875 88.351562 19.339844 89.382812 18.074219 90.265625 C 15.539062 92.078125 13.242188 91.136719 12.90625 88.023438 C 12.457031 83.800781 12.304688 79.550781 12.035156 75.300781 C 11.863281 72.519531 11.835938 69.71875 11.453125 66.964844 C 11.3125 65.882812 10.546875 64.226562 9.785156 64.054688 C 9.019531 63.882812 7.621094 64.878906 6.71875 65.625 C 5.96875 66.378906 5.3125 67.207031 4.757812 68.109375 L 4.195312 67.828125 C 4.539062 66.957031 4.679688 65.917969 5.257812 65.261719 C 6.394531 63.917969 7.679688 62.738281 9.109375 61.714844 C 9.699219 61.347656 10.167969 60.863281 10.511719 60.261719 C 10.855469 59.664062 11.039062 59.015625 11.058594 58.324219 C 11.804688 51.117188 12.621094 43.917969 13.480469 36.726562 C 14.09375 31.648438 14.347656 26.460938 15.589844 21.539062 C 17.894531 12.441406 23.027344 5.265625 31.769531 1.097656 C 34.925781 -0.402344 38.234375 -0.28125 41.546875 -0.144531 L 42.027344 0.503906 C 40.480469 1.890625 38.953125 3.296875 37.367188 4.636719 C 36.992188 4.867188 36.589844 4.949219 36.152344 4.882812 C 27.816406 3.917969 23.15625 6.910156 21.375 15.109375 C 20.140625 20.804688 19.578125 26.640625 18.808594 32.433594 C 18.308594 36.175781 17.976562 39.960938 17.492188 44.40625 C 18.496094 43.238281 19.109375 42.578125 19.65625 41.875 C 23.148438 37.386719 26.957031 33.269531 32.179688 30.726562 C 32.441406 30.601562 32.675781 30.40625 32.929688 30.300781 C 37.214844 28.667969 39.804688 30.449219 39.386719 35.050781 C 38.945312 39.921875 38.085938 44.78125 37.46875 49.628906 C 37.074219 52.824219 36.722656 56.019531 36.484375 59.230469 C 36.429688 59.855469 36.78125 61.015625 37.113281 61.085938 C 37.960938 61.261719 38.742188 61.101562 39.453125 60.597656 C 40.753906 59.21875 41.96875 57.769531 43.097656 56.25 C 43.398438 55.882812 43.652344 55.503906 43.921875 55.082031 L 44.511719 55.269531 C 44.257812 56.214844 44.292969 57.433594 43.703125 58.0625 C 41.457031 60.433594 38.96875 62.550781 36.671875 64.886719 C 35.816406 65.746094 34.835938 66.785156 34.597656 67.878906 C 32.734375 76.445312 31.199219 85.089844 29.238281 93.625 C 27.242188 102.328125 23.253906 109.9375 14.960938 114.210938 C 11.96875 115.707031 8.496094 116.269531 5.234375 117.25 Z M 33.929688 39.019531 C 34 34.707031 32.1875 33.445312 28.917969 35.097656 C 21.839844 38.6875 18.375 45.09375 16.730469 52.433594 C 15.460938 58.121094 15.167969 63.859375 15.851562 69.644531 C 16.347656 73.855469 16.292969 78.136719 16.722656 82.363281 C 16.847656 83.621094 17.777344 84.804688 18.335938 86.023438 C 19.476562 85.484375 20.851562 85.195312 21.703125 84.371094 C 23.648438 82.523438 25.28125 80.4375 26.601562 78.101562 C 27.921875 75.769531 28.871094 73.292969 29.449219 70.675781 C 30.601562 65.4375 31.125 60.007812 31.867188 54.648438 C 32.628906 49.164062 33.316406 43.636719 33.929688 39.019531 Z M 33.929688 39.019531 " fill-opacity="1" fill-rule="nonzero"/></g><path fill="#ffffff" d="M 205.628906 44.988281 C 208.621094 42.355469 211.121094 39.398438 214.257812 37.605469 C 223.394531 32.367188 235.46875 35.890625 237.378906 48.078125 C 237.898438 51.929688 238.148438 55.792969 238.125 59.675781 C 238.246094 67.003906 238.164062 74.335938 238.164062 81.839844 L 232.15625 81.839844 L 232.15625 79.5 C 232.15625 71.359375 232.230469 63.210938 232.101562 55.070312 C 232.167969 52.492188 231.820312 49.972656 231.0625 47.511719 C 228.316406 39.902344 218.695312 39.460938 213.230469 44.089844 C 209.125 47.578125 207.484375 52.179688 207.289062 57.296875 C 207.019531 64.554688 207.058594 71.816406 206.96875 79.082031 C 206.96875 79.949219 206.96875 80.824219 206.96875 81.863281 L 201.25 81.863281 C 201.207031 80.921875 201.132812 80 201.117188 79.074219 C 200.988281 69.757812 201.070312 60.433594 200.675781 51.132812 C 200.316406 42.585938 191.449219 38.285156 184.101562 42.828125 C 177.890625 46.695312 176.183594 52.757812 176.09375 59.46875 C 175.96875 66.867188 176.09375 74.277344 176.09375 81.871094 L 170.152344 81.871094 L 170.152344 79.253906 C 170.152344 65.902344 170.207031 52.546875 170.109375 39.199219 C 170.109375 36.953125 170.625 36.039062 172.898438 36.398438 C 173.886719 36.554688 174.90625 36.519531 176.15625 36.585938 L 176.15625 43.753906 C 180.5625 38.203125 185.507812 35.132812 192.128906 35.382812 C 198.925781 35.644531 203.363281 39.175781 205.628906 44.988281 Z M 205.628906 44.988281 " fill-opacity="1" fill-rule="nonzero"/><path fill="#ffffff" d="M 289.425781 43.132812 C 289.425781 41.59375 289.464844 39.78125 289.425781 37.96875 C 289.425781 36.839844 289.839844 36.472656 290.96875 36.398438 C 295.347656 36.152344 295.347656 36.113281 295.347656 40.417969 L 295.347656 81.902344 L 289.523438 81.902344 L 289.523438 75.488281 L 289.113281 75.015625 C 281.699219 82.792969 272.957031 85.140625 262.921875 81.707031 C 260.554688 80.859375 258.394531 79.636719 256.445312 78.042969 C 254.496094 76.449219 252.871094 74.574219 251.574219 72.421875 C 245.445312 62.78125 247.082031 49.359375 255.007812 41.964844 C 256.519531 40.472656 258.207031 39.210938 260.070312 38.1875 C 261.933594 37.160156 263.902344 36.410156 265.976562 35.933594 C 270.195312 35.042969 274.566406 34.746094 278.503906 36.511719 C 282.3125 38.21875 285.6875 40.8125 289.425781 43.132812 Z M 289.734375 59.453125 C 289.523438 48.707031 281.691406 40.933594 271.214844 41.089844 C 261.675781 41.234375 253.609375 49.890625 253.789062 59.796875 C 253.953125 68.957031 262.257812 78.375 272.890625 77.808594 C 282.050781 77.285156 289.921875 68.984375 289.734375 59.453125 Z M 289.734375 59.453125 " fill-opacity="1" fill-rule="nonzero"/><path fill="#ffffff" d="M 94.570312 81.992188 L 88.636719 81.992188 L 88.636719 79.589844 C 88.636719 71.523438 88.636719 63.457031 88.578125 55.382812 C 88.574219 53.328125 88.324219 51.300781 87.828125 49.308594 C 85.742188 41.261719 76.746094 38.203125 69.25 42.925781 C 63.855469 46.3125 61.226562 51.34375 61.019531 57.613281 C 60.816406 64.796875 60.800781 71.980469 60.710938 79.164062 C 60.710938 80.03125 60.710938 80.898438 60.710938 81.917969 L 55.0625 81.917969 C 55.011719 80.914062 54.925781 79.984375 54.921875 79.050781 C 54.921875 59.835938 54.921875 40.621094 54.851562 21.433594 C 54.851562 19.324219 55.535156 18.703125 57.480469 18.917969 C 58.59375 18.976562 59.710938 18.976562 60.824219 18.917969 L 60.824219 43.925781 C 62.738281 42.191406 64.160156 40.761719 65.734375 39.503906 C 66.839844 38.582031 68.039062 37.804688 69.332031 37.164062 C 70.625 36.523438 71.972656 36.042969 73.375 35.71875 C 74.78125 35.398438 76.203125 35.242188 77.644531 35.253906 C 79.082031 35.261719 80.503906 35.441406 81.902344 35.785156 C 89.035156 37.402344 93.433594 42.519531 94.105469 50.601562 C 94.714844 57.816406 94.488281 65.101562 94.59375 72.359375 C 94.625 75.496094 94.570312 78.632812 94.570312 81.992188 Z M 94.570312 81.992188 " fill-opacity="1" fill-rule="nonzero"/><g clip-path="url(#81b590d9d1)"><path fill="#ffffff" d="M 314.359375 81.984375 L 308.628906 81.984375 C 308.582031 81.234375 308.515625 80.636719 308.507812 79.992188 C 308.507812 66.714844 308.507812 53.433594 308.507812 40.148438 C 308.507812 36.363281 308.507812 36.355469 312.355469 36.40625 C 312.929688 36.40625 313.5 36.472656 314.316406 36.519531 L 314.316406 43.296875 L 314.839844 43.597656 C 315.460938 42.992188 316.09375 42.394531 316.703125 41.765625 C 321.789062 36.445312 328.082031 34.242188 335.25 35.695312 C 342.734375 37.246094 347.386719 43.035156 347.785156 51.671875 C 348.242188 61.488281 348.070312 71.328125 348.160156 81.160156 C 348.121094 81.417969 348.050781 81.667969 347.949219 81.910156 L 342.226562 81.910156 L 342.226562 79.566406 C 342.226562 71.335938 342.269531 63.105469 342.164062 54.910156 C 342.175781 52.847656 341.890625 50.828125 341.304688 48.851562 C 339.058594 41.9375 332.394531 38.921875 325.402344 41.71875 C 318.414062 44.519531 314.964844 50.03125 314.679688 57.433594 C 314.398438 64.683594 314.449219 71.949219 314.367188 79.214844 C 314.351562 80.0625 314.359375 80.929688 314.359375 81.984375 Z M 314.359375 81.984375 " fill-opacity="1" fill-rule="nonzero"/></g><path fill="#ffffff" d="M 124.1875 70.574219 C 125.859375 66.761719 127.523438 62.957031 129.179688 59.152344 C 132.171875 52.179688 135.253906 45.214844 138.210938 38.203125 C 138.777344 36.847656 139.511719 36.257812 140.992188 36.390625 C 142.339844 36.519531 143.703125 36.390625 145.421875 36.390625 C 143.027344 41.867188 140.84375 46.867188 138.6875 51.875 C 132.222656 66.675781 125.722656 81.46875 119.359375 96.3125 C 118.554688 98.207031 117.574219 98.925781 115.621094 98.671875 C 114.40625 98.601562 113.191406 98.601562 111.976562 98.671875 C 113.171875 95.820312 114.183594 93.351562 115.253906 90.902344 C 116.710938 87.558594 118.15625 84.167969 119.742188 80.90625 C 120.117188 80.144531 120.296875 79.339844 120.28125 78.492188 C 120.265625 77.644531 120.054688 76.847656 119.652344 76.101562 C 114.117188 63.78125 108.613281 51.433594 103.144531 39.0625 C 102.824219 38.316406 102.59375 37.566406 102.160156 36.4375 C 103.980469 36.332031 105.796875 36.359375 107.613281 36.519531 C 108.234375 36.617188 108.886719 37.632812 109.214844 38.367188 C 112.492188 45.632812 115.695312 52.921875 118.941406 60.195312 C 120.484375 63.644531 122.0625 67.078125 123.617188 70.519531 Z M 124.1875 70.574219 " fill-opacity="1" fill-rule="nonzero"/><path fill="#ffffff" d="M 157.253906 81.917969 L 151.597656 81.917969 C 151.597656 81.167969 151.5 80.375 151.5 79.605469 C 151.5 60.253906 151.5 40.902344 151.5 21.554688 C 151.5 20.714844 151.875 19.203125 152.246094 19.167969 C 153.90625 19.035156 155.558594 19.078125 157.207031 19.292969 C 157.34375 19.292969 157.492188 20.042969 157.492188 20.484375 C 157.492188 40.710938 157.492188 60.941406 157.492188 81.167969 C 157.441406 81.425781 157.363281 81.675781 157.253906 81.917969 Z M 157.253906 81.917969 " fill-opacity="1" fill-rule="nonzero"/><path fill="#ffffff" d="M 143.460938 104.902344 C 138.5625 107.621094 134.679688 107.355469 132.015625 104.035156 C 131.722656 103.664062 131.460938 103.265625 131.238281 102.847656 C 131.011719 102.429688 130.824219 101.996094 130.675781 101.546875 C 130.523438 101.097656 130.414062 100.636719 130.34375 100.167969 C 130.273438 99.699219 130.246094 99.226562 130.253906 98.753906 C 130.265625 98.277344 130.320312 97.808594 130.410156 97.34375 C 130.503906 96.878906 130.636719 96.425781 130.804688 95.980469 C 130.976562 95.539062 131.183594 95.113281 131.429688 94.707031 C 131.671875 94.300781 131.949219 93.917969 132.261719 93.558594 C 135.203125 90.289062 138.777344 90.164062 143.902344 93.328125 L 143.902344 85.898438 L 144.652344 85.464844 C 145.070312 85.988281 145.851562 86.511719 145.855469 87.035156 C 145.941406 93.109375 145.933594 99.1875 145.855469 105.253906 C 145.855469 105.710938 145.25 106.152344 144.929688 106.601562 Z M 144 99.15625 C 144.015625 98.753906 143.988281 98.355469 143.921875 97.960938 C 143.855469 97.5625 143.75 97.179688 143.605469 96.804688 C 143.460938 96.429688 143.28125 96.070312 143.0625 95.734375 C 142.847656 95.394531 142.601562 95.082031 142.320312 94.792969 C 142.042969 94.503906 141.738281 94.246094 141.40625 94.019531 C 141.074219 93.792969 140.722656 93.597656 140.355469 93.441406 C 139.984375 93.285156 139.601562 93.167969 139.207031 93.085938 C 138.816406 93.007812 138.417969 92.96875 138.015625 92.96875 C 135.023438 92.96875 132.375 95.714844 132.320312 98.8125 C 132.3125 99.207031 132.339844 99.59375 132.40625 99.984375 C 132.472656 100.371094 132.578125 100.75 132.71875 101.117188 C 132.859375 101.484375 133.03125 101.832031 133.242188 102.167969 C 133.449219 102.5 133.691406 102.808594 133.960938 103.097656 C 134.230469 103.382812 134.523438 103.640625 134.84375 103.867188 C 135.164062 104.097656 135.503906 104.292969 135.859375 104.457031 C 136.21875 104.617188 136.589844 104.746094 136.972656 104.835938 C 137.355469 104.925781 137.742188 104.976562 138.136719 104.992188 C 138.519531 104.996094 138.902344 104.960938 139.28125 104.890625 C 139.660156 104.816406 140.027344 104.707031 140.382812 104.5625 C 140.738281 104.417969 141.078125 104.238281 141.398438 104.027344 C 141.71875 103.816406 142.019531 103.574219 142.289062 103.300781 C 142.5625 103.03125 142.808594 102.734375 143.023438 102.414062 C 143.238281 102.09375 143.417969 101.757812 143.566406 101.402344 C 143.710938 101.046875 143.824219 100.679688 143.898438 100.300781 C 143.972656 99.921875 144.011719 99.542969 144.007812 99.15625 Z M 144 99.15625 " fill-opacity="1" fill-rule="nonzero"/><path fill="#ffffff" d="M 265.28125 99.203125 L 252.410156 99.203125 C 252.359375 99.757812 252.394531 100.304688 252.523438 100.847656 C 252.648438 101.390625 252.855469 101.902344 253.148438 102.378906 C 253.4375 102.851562 253.796875 103.273438 254.222656 103.632812 C 254.648438 103.992188 255.117188 104.277344 255.636719 104.484375 C 256.199219 104.71875 256.78125 104.859375 257.386719 104.910156 C 257.996094 104.957031 258.59375 104.914062 259.1875 104.773438 C 259.78125 104.632812 260.335938 104.40625 260.855469 104.089844 C 261.378906 103.773438 261.835938 103.386719 262.234375 102.925781 C 263.574219 101.5 263.574219 101.5 264.898438 102.300781 C 263.574219 106.519531 258.710938 107.441406 255.097656 106.453125 C 251.59375 105.496094 249.363281 100.855469 250.308594 96.941406 C 250.414062 96.46875 250.5625 96.007812 250.757812 95.558594 C 250.949219 95.113281 251.183594 94.691406 251.457031 94.289062 C 251.730469 93.886719 252.039062 93.511719 252.382812 93.167969 C 252.726562 92.824219 253.097656 92.515625 253.5 92.242188 C 253.90625 91.972656 254.328125 91.738281 254.773438 91.546875 C 255.222656 91.355469 255.683594 91.203125 256.15625 91.097656 C 256.632812 90.996094 257.113281 90.933594 257.597656 90.921875 C 258.085938 90.90625 258.566406 90.9375 259.046875 91.015625 C 263.035156 91.671875 265.632812 94.945312 265.28125 99.203125 Z M 252.84375 97.253906 L 262.984375 97.253906 C 262.878906 96.65625 262.671875 96.089844 262.367188 95.558594 C 262.0625 95.03125 261.679688 94.566406 261.210938 94.171875 C 260.746094 93.777344 260.226562 93.472656 259.65625 93.261719 C 259.082031 93.046875 258.492188 92.9375 257.878906 92.929688 C 257.265625 92.914062 256.671875 93.003906 256.089844 93.210938 C 255.511719 93.414062 254.988281 93.71875 254.523438 94.117188 C 254.058594 94.515625 253.679688 94.988281 253.390625 95.527344 C 253.101562 96.070312 252.917969 96.644531 252.84375 97.253906 Z M 252.84375 97.253906 " fill-opacity="1" fill-rule="nonzero"/><path fill="#ffffff" d="M 93.539062 99.179688 L 80.726562 99.179688 C 80.652344 99.714844 80.664062 100.25 80.757812 100.78125 C 80.855469 101.316406 81.03125 101.820312 81.292969 102.296875 C 81.550781 102.769531 81.875 103.195312 82.273438 103.566406 C 82.667969 103.933594 83.109375 104.234375 83.601562 104.460938 C 84.195312 104.714844 84.816406 104.867188 85.460938 104.917969 C 86.105469 104.964844 86.742188 104.910156 87.367188 104.746094 C 87.992188 104.585938 88.578125 104.328125 89.117188 103.972656 C 89.65625 103.617188 90.125 103.183594 90.523438 102.671875 C 91.375 101.601562 92.019531 101.078125 93.023438 102.359375 C 91.683594 106.324219 86.929688 107.445312 83.292969 106.472656 C 79.65625 105.5 77.503906 101.199219 78.339844 97.285156 C 79.253906 93.042969 82.628906 90.550781 86.789062 90.96875 C 90.816406 91.402344 93.515625 94.578125 93.539062 99.179688 Z M 80.714844 97.261719 L 91.046875 97.261719 C 90.953125 96.695312 90.773438 96.160156 90.5 95.652344 C 90.230469 95.144531 89.882812 94.695312 89.464844 94.304688 C 89.042969 93.910156 88.570312 93.597656 88.046875 93.363281 C 87.519531 93.128906 86.972656 92.984375 86.398438 92.929688 C 83.855469 92.714844 81.664062 94.269531 80.714844 97.261719 Z M 80.714844 97.261719 " fill-opacity="1" fill-rule="nonzero"/><path fill="#ffffff" d="M 165.34375 99.171875 L 152.539062 99.171875 C 152.445312 99.703125 152.445312 100.234375 152.53125 100.765625 C 152.617188 101.300781 152.789062 101.804688 153.042969 102.277344 C 153.300781 102.753906 153.625 103.171875 154.023438 103.539062 C 154.417969 103.902344 154.867188 104.195312 155.359375 104.410156 C 155.953125 104.664062 156.570312 104.820312 157.214844 104.875 C 157.859375 104.929688 158.492188 104.882812 159.121094 104.730469 C 159.75 104.582031 160.335938 104.335938 160.882812 103.996094 C 161.433594 103.65625 161.914062 103.238281 162.328125 102.742188 C 163.5 101.445312 163.5 101.445312 164.78125 102.335938 C 163.34375 106.691406 158.351562 107.402344 154.925781 106.421875 C 151.5 105.441406 149.382812 101.078125 150.175781 97.300781 C 151.066406 93.058594 154.441406 90.519531 158.609375 90.984375 C 162.601562 91.417969 165.289062 94.546875 165.34375 99.171875 Z M 163 97.339844 C 162.15625 94.285156 159.707031 92.609375 157.015625 92.984375 C 154.320312 93.355469 152.757812 95.035156 152.800781 97.339844 Z M 163 97.339844 " fill-opacity="1" fill-rule="nonzero"/><path fill="#ffffff" d="M 238.433594 99.195312 L 225.613281 99.195312 C 225.546875 99.730469 225.558594 100.261719 225.660156 100.792969 C 225.757812 101.324219 225.933594 101.828125 226.191406 102.304688 C 226.445312 102.777344 226.769531 103.203125 227.160156 103.578125 C 227.550781 103.949219 227.988281 104.253906 228.472656 104.492188 C 229.074219 104.722656 229.699219 104.855469 230.34375 104.890625 C 230.984375 104.925781 231.621094 104.863281 232.242188 104.699219 C 232.867188 104.535156 233.449219 104.277344 233.992188 103.929688 C 234.535156 103.585938 235.015625 103.164062 235.425781 102.664062 C 236.277344 101.617188 236.921875 101.085938 237.929688 102.382812 C 236.226562 106.796875 231.40625 107.355469 228.003906 106.398438 C 224.597656 105.441406 222.441406 100.953125 223.324219 97.046875 C 223.417969 96.578125 223.554688 96.121094 223.734375 95.675781 C 223.914062 95.234375 224.132812 94.8125 224.390625 94.410156 C 224.648438 94.007812 224.941406 93.632812 225.273438 93.285156 C 225.601562 92.9375 225.960938 92.625 226.347656 92.347656 C 226.734375 92.066406 227.148438 91.828125 227.582031 91.625 C 228.015625 91.421875 228.464844 91.265625 228.925781 91.148438 C 229.390625 91.03125 229.859375 90.957031 230.339844 90.929688 C 230.816406 90.898438 231.292969 90.917969 231.765625 90.976562 C 235.761719 91.425781 238.433594 94.585938 238.433594 99.195312 Z M 235.933594 97.332031 C 235.894531 97.015625 235.828125 96.707031 235.730469 96.40625 C 235.632812 96.101562 235.503906 95.8125 235.351562 95.535156 C 235.199219 95.257812 235.023438 94.996094 234.820312 94.75 C 234.617188 94.507812 234.394531 94.285156 234.148438 94.082031 C 233.90625 93.878906 233.644531 93.703125 233.363281 93.550781 C 233.085938 93.398438 232.796875 93.273438 232.496094 93.175781 C 232.191406 93.078125 231.882812 93.011719 231.570312 92.972656 C 231.253906 92.933594 230.9375 92.925781 230.621094 92.945312 C 227.792969 93.109375 225.863281 94.898438 225.988281 97.332031 Z M 235.933594 97.332031 " fill-opacity="1" fill-rule="nonzero"/><path fill="#ffffff" d="M 181.535156 91.644531 C 181.347656 95.273438 181.535156 98.96875 180.859375 102.507812 C 180.226562 105.898438 177.824219 107.035156 173.96875 106.707031 C 170.722656 106.429688 168.6875 104.738281 168.402344 101.550781 C 168.210938 98.558594 168.179688 95.566406 168.304688 92.570312 C 168.304688 92.199219 168.925781 91.824219 169.261719 91.472656 C 169.585938 91.859375 170.175781 92.21875 170.191406 92.632812 C 170.28125 95.046875 170.191406 97.472656 170.257812 99.890625 C 170.324219 103.0625 172.03125 104.875 174.875 104.851562 C 177.5625 104.851562 179.230469 103.039062 179.363281 99.917969 C 179.441406 97.578125 179.3125 95.21875 179.460938 92.886719 C 179.460938 92.316406 180.269531 91.792969 180.703125 91.253906 Z M 181.535156 91.644531 " fill-opacity="1" fill-rule="nonzero"/><path fill="#ffffff" d="M 197.308594 106.570312 C 192.820312 106.632812 192.820312 102.261719 190.230469 100.847656 C 187.550781 101.960938 187.714844 106.640625 183.1875 106.5625 C 184.835938 104.253906 186.089844 102.230469 187.609375 100.421875 C 188.785156 99.023438 188.679688 97.953125 187.609375 96.621094 C 186.367188 95.125 185.289062 93.460938 184.117188 91.832031 C 186.175781 91.21875 186.175781 91.21875 187.511719 93.050781 L 189.914062 96.296875 C 192.617188 95.316406 192.347656 90.820312 196.46875 91.5625 C 195.144531 93.425781 194.082031 95.152344 192.773438 96.679688 C 191.464844 98.207031 191.761719 99.171875 192.871094 100.519531 C 194.324219 102.292969 195.640625 104.246094 197.308594 106.570312 Z M 197.308594 106.570312 " fill-opacity="1" fill-rule="nonzero"/><path fill="#ffffff" d="M 95.574219 104.066406 C 96.417969 103.992188 97.265625 103.992188 98.109375 104.066406 C 99.007812 104.214844 99.9375 104.875 100.738281 104.714844 C 101.175781 104.601562 101.570312 104.394531 101.917969 104.097656 C 102.261719 103.804688 102.527344 103.449219 102.710938 103.03125 C 102.78125 102.097656 102.480469 101.300781 101.8125 100.644531 C 101.007812 99.84375 99.832031 99.433594 98.867188 98.78125 C 96.457031 97.152344 95.871094 94.921875 97.25 92.796875 C 98.460938 90.917969 100.992188 90.507812 103.28125 91.839844 C 103.765625 92.152344 104.234375 92.488281 104.679688 92.855469 L 104.71875 93.558594 C 104.027344 93.675781 103.332031 93.722656 102.628906 93.703125 C 102.082031 93.632812 101.507812 92.953125 101.050781 93.085938 C 100.148438 93.230469 99.375 93.628906 98.738281 94.285156 C 98.453125 94.652344 98.792969 95.855469 99.226562 96.351562 C 99.964844 97.054688 100.796875 97.632812 101.71875 98.078125 C 103.582031 99.164062 105.121094 100.441406 104.84375 102.882812 C 104.648438 104.609375 103.820312 106.070312 102.113281 106.519531 C 99.859375 107.082031 97.617188 106.878906 95.574219 104.066406 Z M 95.574219 104.066406 " fill-opacity="1" fill-rule="nonzero"/><path fill="#ffffff" d="M 213.34375 87.417969 C 210.898438 87.09375 209.324219 87.027344 209.535156 89.578125 C 209.640625 90.828125 209.894531 91.5 211.300781 91.449219 C 211.71875 91.449219 212.160156 91.9375 212.59375 92.199219 C 212.167969 92.480469 211.734375 93.003906 211.316406 93 C 209.757812 92.953125 209.511719 93.796875 209.527344 95.085938 C 209.566406 98.378906 209.578125 101.679688 209.488281 104.976562 C 209.488281 105.507812 208.863281 106.019531 208.523438 106.542969 C 208.195312 106.011719 207.597656 105.488281 207.582031 104.941406 C 207.484375 101.949219 207.535156 98.953125 207.535156 95.960938 C 207.535156 95.445312 207.328125 94.816406 207.535156 94.464844 C 208.488281 92.894531 203.796875 93.253906 206.445312 91.554688 C 208.226562 90.394531 207.238281 88.941406 207.621094 87.679688 C 208.195312 85.753906 210.515625 84.566406 212.273438 85.605469 C 212.691406 85.828125 212.851562 86.480469 213.34375 87.417969 Z M 213.34375 87.417969 " fill-opacity="1" fill-rule="nonzero"/><path fill="#ffffff" d="M 267.308594 104.078125 C 267.988281 104.011719 268.671875 104.011719 269.351562 104.078125 C 270.195312 104.238281 271.058594 104.910156 271.796875 104.761719 C 272.246094 104.671875 272.65625 104.488281 273.023438 104.214844 C 273.390625 103.941406 273.683594 103.601562 273.902344 103.195312 C 273.964844 102.753906 273.933594 102.316406 273.800781 101.890625 C 273.671875 101.460938 273.453125 101.082031 273.152344 100.75 C 272.40625 100 271.335938 99.558594 270.398438 98.984375 C 267.816406 97.382812 267.0625 95.070312 268.410156 92.902344 C 269.753906 90.730469 272.367188 90.453125 274.792969 92.003906 C 275.363281 92.390625 275.753906 92.914062 275.972656 93.566406 C 275.3125 93.726562 274.644531 93.792969 273.96875 93.777344 C 273.21875 93.648438 272.472656 92.96875 271.722656 93.027344 C 270.910156 93.164062 270.308594 93.59375 269.914062 94.316406 C 269.835938 94.691406 269.847656 95.066406 269.949219 95.4375 C 270.046875 95.808594 270.226562 96.136719 270.480469 96.425781 C 271.386719 97.171875 272.359375 97.816406 273.398438 98.363281 C 276.175781 100.136719 276.929688 102.800781 275.300781 105.039062 C 273.804688 107.101562 270.535156 107.410156 268.207031 105.679688 C 267.875 105.410156 267.558594 105.121094 267.257812 104.8125 Z M 267.308594 104.078125 " fill-opacity="1" fill-rule="nonzero"/><path fill="#ffffff" d="M 244.179688 92.316406 C 245.496094 91.703125 246.925781 90.027344 249.238281 91.875 C 248.527344 92.308594 247.972656 92.910156 247.367188 92.984375 C 245.121094 93.246094 244.121094 94.675781 243.886719 96.613281 C 243.574219 99.214844 243.617188 101.851562 243.378906 104.484375 C 243.1875 105.21875 242.886719 105.910156 242.472656 106.550781 C 242.121094 105.800781 241.476562 105.113281 241.457031 104.378906 C 241.351562 100.71875 241.386719 97.0625 241.457031 93.394531 C 241.550781 92.722656 241.730469 92.074219 241.996094 91.449219 Z M 244.179688 92.316406 " fill-opacity="1" fill-rule="nonzero"/><path fill="#ffffff" d="M 215.132812 91.066406 L 217.816406 92.316406 C 219.148438 91.800781 220.617188 89.886719 222.855469 91.898438 C 222.203125 92.308594 221.679688 92.914062 221.109375 92.96875 C 218.625 93.164062 217.683594 94.816406 217.464844 96.902344 C 217.195312 99.515625 217.292969 102.140625 217.085938 104.777344 C 217.039062 105.375 216.410156 105.9375 216.042969 106.511719 C 215.738281 105.964844 215.183594 105.425781 215.175781 104.875 C 215.09375 100.457031 215.132812 96.019531 215.132812 91.066406 Z M 215.132812 91.066406 " fill-opacity="1" fill-rule="nonzero"/><path fill="#ffffff" d="M 74.496094 106.78125 C 74.097656 106.210938 73.363281 105.636719 73.359375 105.058594 C 73.273438 99.117188 73.359375 93.175781 73.304688 87.238281 C 73.304688 85.957031 73.648438 85.253906 75.175781 85.816406 C 75.175781 86.179688 75.265625 86.5625 75.265625 86.890625 C 75.265625 93.34375 75.265625 99.789062 75.265625 106.234375 Z M 74.496094 106.78125 " fill-opacity="1" fill-rule="nonzero"/><path fill="#ffffff" d="M 232.769531 88.574219 C 229.699219 88.808594 229.09375 85.949219 227.007812 84.648438 C 230.292969 84.011719 230.753906 84.332031 232.769531 88.574219 Z M 232.769531 88.574219 " fill-opacity="1" fill-rule="nonzero"/></svg>