<svg xmlns="http://www.w3.org/2000/svg" xmlns:xlink="http://www.w3.org/1999/xlink" width="40" zoomAndPan="magnify" viewBox="0 0 30 30.000001" height="40" preserveAspectRatio="xMidYMid meet" version="1.0"><defs><clipPath id="5c10d31879"><path d="M 6 25 L 9 25 L 9 28.304688 L 6 28.304688 Z M 6 25 " clip-rule="nonzero"/></clipPath><clipPath id="a1a9446cb5"><path d="M 8 25 L 12 25 L 12 28.304688 L 8 28.304688 Z M 8 25 " clip-rule="nonzero"/></clipPath><clipPath id="de2ca4a517"><path d="M 18 25 L 22 25 L 22 28.304688 L 18 28.304688 Z M 18 25 " clip-rule="nonzero"/></clipPath><clipPath id="e9da8a11cc"><path d="M 11 25 L 14 25 L 14 28.304688 L 11 28.304688 Z M 11 25 " clip-rule="nonzero"/></clipPath><clipPath id="332b009fee"><path d="M 14 25 L 17 25 L 17 28.304688 L 14 28.304688 Z M 14 25 " clip-rule="nonzero"/></clipPath><clipPath id="b9bd205fd3"><path d="M 16 25 L 19 25 L 19 28.304688 L 16 28.304688 Z M 16 25 " clip-rule="nonzero"/></clipPath><clipPath id="b9f349563a"><path d="M 29 15 L 29.515625 15 L 29.515625 16 L 29 16 Z M 29 15 " clip-rule="nonzero"/></clipPath></defs><path fill="#267048" d="M 12.0625 20.265625 C 12.054688 20.203125 12.007812 20.203125 11.976562 20.1875 C 11.882812 20.140625 11.785156 20.105469 11.695312 20.058594 C 11.449219 19.9375 11.265625 19.746094 11.140625 19.5 C 10.988281 19.191406 10.910156 18.859375 10.835938 18.511719 C 10.90625 18.515625 10.960938 18.515625 11.023438 18.527344 C 11.335938 18.582031 11.59375 18.738281 11.796875 18.976562 C 12.011719 19.234375 12.15625 19.53125 12.273438 19.84375 C 12.328125 19.988281 12.375 20.132812 12.417969 20.277344 C 12.4375 20.335938 12.460938 20.367188 12.535156 20.371094 C 12.785156 20.394531 13.035156 20.414062 13.28125 20.441406 C 13.359375 20.445312 13.433594 20.449219 13.507812 20.464844 C 13.578125 20.480469 13.65625 20.5 13.734375 20.527344 C 13.875 20.460938 14.039062 20.449219 14.199219 20.433594 C 14.4375 20.414062 14.675781 20.386719 14.914062 20.371094 C 14.980469 20.367188 15.011719 20.34375 15.03125 20.277344 C 15.128906 19.945312 15.25 19.625 15.417969 19.328125 C 15.574219 19.042969 15.777344 18.796875 16.074219 18.644531 C 16.242188 18.558594 16.4375 18.511719 16.605469 18.519531 C 16.605469 18.53125 16.609375 18.546875 16.609375 18.5625 C 16.546875 18.878906 16.46875 19.191406 16.328125 19.484375 C 16.191406 19.769531 15.980469 19.96875 15.695312 20.101562 C 15.613281 20.136719 15.535156 20.171875 15.453125 20.207031 C 15.433594 20.21875 15.417969 20.230469 15.398438 20.246094 C 15.425781 20.289062 15.464844 20.265625 15.492188 20.261719 C 15.867188 20.183594 16.230469 20.082031 16.589844 19.957031 C 16.671875 19.933594 16.753906 19.894531 16.839844 19.863281 C 16.855469 19.726562 16.867188 19.589844 16.882812 19.453125 C 16.914062 19.171875 16.949219 18.886719 17.046875 18.613281 C 17.1875 18.203125 17.453125 17.925781 17.871094 17.796875 C 17.894531 17.789062 17.921875 17.789062 17.941406 17.78125 C 17.953125 17.792969 17.957031 17.796875 17.957031 17.800781 C 17.96875 18.140625 17.957031 18.480469 17.859375 18.808594 C 17.777344 19.089844 17.609375 19.304688 17.378906 19.484375 C 17.316406 19.535156 17.25 19.582031 17.195312 19.632812 C 17.171875 19.648438 17.15625 19.679688 17.136719 19.710938 C 17.285156 19.707031 18.25 19.230469 18.472656 19.054688 C 18.464844 18.886719 18.453125 18.710938 18.441406 18.535156 C 18.429688 18.285156 18.433594 18.035156 18.472656 17.78125 C 18.546875 17.390625 18.75 17.105469 19.09375 16.914062 C 19.125 16.898438 19.160156 16.882812 19.207031 16.863281 C 19.214844 16.914062 19.230469 16.960938 19.238281 17.003906 C 19.292969 17.320312 19.324219 17.636719 19.273438 17.957031 C 19.226562 18.238281 19.113281 18.488281 18.902344 18.683594 C 18.878906 18.710938 18.859375 18.742188 18.847656 18.789062 C 18.867188 18.78125 18.890625 18.78125 18.902344 18.773438 C 19.269531 18.535156 19.617188 18.28125 19.933594 17.980469 C 19.996094 17.921875 20.0625 17.871094 20.132812 17.804688 C 19.847656 17.449219 19.757812 17.042969 19.796875 16.605469 C 19.824219 16.226562 19.957031 15.882812 20.183594 15.5625 C 20.242188 15.589844 20.277344 15.636719 20.3125 15.6875 C 20.449219 15.882812 20.507812 16.109375 20.523438 16.347656 C 20.546875 16.679688 20.5 17.007812 20.414062 17.332031 C 20.398438 17.386719 20.394531 17.445312 20.398438 17.511719 C 20.730469 17.238281 21.007812 16.921875 21.265625 16.566406 C 20.871094 16.203125 20.738281 15.734375 20.757812 15.222656 C 20.773438 14.835938 20.890625 14.523438 21.082031 14.292969 C 21.171875 14.359375 21.234375 14.453125 21.289062 14.546875 C 21.417969 14.761719 21.480469 14.992188 21.496094 15.238281 C 21.515625 15.539062 21.484375 15.835938 21.445312 16.136719 C 21.4375 16.171875 21.421875 16.203125 21.417969 16.234375 C 21.414062 16.257812 21.421875 16.289062 21.433594 16.320312 C 21.761719 15.925781 22.03125 15.503906 22.261719 15.042969 C 21.785156 14.726562 21.515625 14.289062 21.453125 13.722656 C 21.421875 13.433594 21.46875 13.074219 21.613281 12.847656 C 21.800781 12.960938 21.949219 13.113281 22.0625 13.304688 C 22.210938 13.558594 22.273438 13.84375 22.292969 14.132812 C 22.308594 14.34375 22.308594 14.554688 22.320312 14.761719 C 22.320312 14.800781 22.324219 14.835938 22.328125 14.890625 C 22.472656 14.753906 22.960938 13.570312 22.976562 13.335938 C 22.542969 13.226562 22.222656 12.96875 21.996094 12.59375 C 21.785156 12.246094 21.699219 11.867188 21.703125 11.457031 C 21.828125 11.476562 21.929688 11.523438 22.027344 11.578125 C 22.3125 11.75 22.515625 12 22.679688 12.28125 C 22.816406 12.519531 22.917969 12.773438 22.992188 13.042969 C 23 13.082031 22.996094 13.140625 23.078125 13.132812 C 23.207031 12.65625 23.28125 12.167969 23.339844 11.65625 C 22.804688 11.589844 22.359375 11.363281 22.027344 10.933594 C 21.824219 10.667969 21.675781 10.296875 21.632812 9.96875 C 21.730469 9.941406 21.824219 9.972656 21.910156 10 C 22.230469 10.101562 22.484375 10.308594 22.707031 10.554688 C 22.929688 10.792969 23.109375 11.0625 23.25 11.355469 C 23.289062 11.429688 23.289062 11.429688 23.363281 11.46875 C 23.40625 10.972656 23.375 10.488281 23.332031 9.984375 C 22.796875 10.003906 22.328125 9.847656 21.941406 9.480469 C 21.695312 9.257812 21.527344 8.984375 21.402344 8.664062 C 21.679688 8.609375 21.929688 8.671875 22.171875 8.792969 C 22.410156 8.921875 22.617188 9.097656 22.816406 9.28125 C 22.945312 9.398438 23.066406 9.527344 23.191406 9.652344 C 23.214844 9.675781 23.246094 9.703125 23.292969 9.75 C 23.296875 9.613281 23.265625 9.511719 23.25 9.410156 C 23.234375 9.300781 23.210938 9.195312 23.191406 9.085938 C 23.167969 8.984375 23.144531 8.875 23.117188 8.773438 C 23.09375 8.664062 23.0625 8.5625 23.03125 8.445312 C 22.433594 8.515625 21.898438 8.390625 21.4375 7.992188 C 21.234375 7.820312 21.015625 7.496094 20.976562 7.296875 C 21.136719 7.261719 21.296875 7.269531 21.449219 7.296875 C 21.730469 7.347656 21.988281 7.464844 22.21875 7.632812 C 22.417969 7.777344 22.605469 7.9375 22.800781 8.089844 C 22.847656 8.128906 22.894531 8.167969 22.960938 8.226562 C 22.949219 8.171875 22.949219 8.148438 22.9375 8.121094 C 22.816406 7.726562 22.664062 7.347656 22.5 6.972656 C 22.460938 6.890625 22.457031 6.890625 22.355469 6.917969 C 21.601562 7.101562 20.773438 6.746094 20.351562 6.082031 C 20.347656 6.070312 20.34375 6.058594 20.332031 6.039062 C 20.359375 6.027344 20.382812 6.011719 20.410156 6.003906 C 20.640625 5.925781 20.875 5.929688 21.105469 5.992188 C 21.386719 6.066406 21.644531 6.207031 21.894531 6.347656 C 21.988281 6.398438 22.078125 6.453125 22.171875 6.507812 C 22.191406 6.515625 22.21875 6.527344 22.257812 6.546875 C 22.242188 6.507812 22.238281 6.480469 22.226562 6.460938 C 22.042969 6.089844 21.828125 5.742188 21.59375 5.402344 C 21.542969 5.332031 21.484375 5.332031 21.414062 5.351562 C 21.167969 5.417969 20.917969 5.464844 20.660156 5.476562 C 20.316406 5.492188 19.984375 5.433594 19.6875 5.253906 C 19.558594 5.175781 19.445312 5.078125 19.34375 4.960938 C 19.359375 4.945312 19.375 4.9375 19.390625 4.929688 C 19.652344 4.816406 19.917969 4.742188 20.203125 4.714844 C 20.554688 4.691406 20.875 4.765625 21.164062 4.976562 C 21.203125 5.007812 21.238281 5.058594 21.3125 5.027344 C 21.300781 5.011719 21.296875 4.992188 21.285156 4.984375 C 21.015625 4.640625 20.726562 4.304688 20.429688 3.988281 C 20.367188 3.921875 20.316406 3.898438 20.226562 3.941406 C 19.929688 4.0625 19.621094 4.117188 19.296875 4.089844 C 18.964844 4.0625 18.683594 3.9375 18.449219 3.695312 C 18.433594 3.675781 18.417969 3.652344 18.398438 3.628906 C 18.925781 3.351562 19.460938 3.285156 20.035156 3.449219 C 20.03125 3.367188 19.953125 3.375 19.917969 3.332031 C 19.890625 3.292969 19.847656 3.269531 19.804688 3.242188 C 19.753906 3.21875 19.699219 3.1875 19.640625 3.175781 C 19.4375 3.128906 19.230469 3.070312 19.050781 2.949219 C 18.898438 2.847656 18.777344 2.71875 18.703125 2.550781 C 18.671875 2.480469 18.621094 2.417969 18.59375 2.34375 C 18.554688 2.273438 18.53125 2.195312 18.488281 2.105469 C 18.550781 2.105469 18.59375 2.09375 18.628906 2.105469 C 18.835938 2.15625 19.03125 2.242188 19.222656 2.34375 C 19.417969 2.453125 19.539062 2.628906 19.667969 2.800781 C 19.703125 2.851562 19.714844 2.925781 19.738281 2.980469 C 19.773438 3.070312 19.800781 3.160156 19.898438 3.195312 C 19.917969 3.203125 19.929688 3.222656 19.964844 3.226562 C 19.953125 3.207031 19.945312 3.183594 19.929688 3.160156 C 19.789062 2.960938 19.675781 2.742188 19.636719 2.5 C 19.601562 2.300781 19.609375 2.097656 19.671875 1.890625 C 19.851562 2.011719 20.015625 2.140625 20.167969 2.285156 C 20.574219 2.664062 20.714844 3.140625 20.6875 3.679688 C 20.679688 3.742188 20.691406 3.785156 20.742188 3.828125 C 21.035156 4.105469 21.296875 4.414062 21.535156 4.742188 C 21.554688 4.765625 21.582031 4.792969 21.609375 4.816406 C 21.617188 4.8125 21.625 4.808594 21.632812 4.804688 C 21.625 4.761719 21.609375 4.722656 21.597656 4.679688 C 21.519531 4.417969 21.464844 4.144531 21.472656 3.871094 C 21.484375 3.601562 21.5625 3.351562 21.726562 3.136719 C 21.734375 3.125 21.742188 3.109375 21.761719 3.085938 C 21.839844 3.175781 21.90625 3.25 21.964844 3.332031 C 22.1875 3.617188 22.328125 3.9375 22.40625 4.285156 C 22.460938 4.519531 22.410156 4.757812 22.335938 4.984375 C 22.277344 5.15625 22.210938 5.324219 22.144531 5.496094 C 22.125 5.550781 22.125 5.59375 22.160156 5.644531 C 22.394531 6 22.601562 6.363281 22.789062 6.742188 C 22.800781 6.757812 22.8125 6.773438 22.835938 6.789062 C 22.835938 6.773438 22.839844 6.757812 22.835938 6.742188 C 22.761719 6.476562 22.734375 6.199219 22.707031 5.921875 C 22.6875 5.710938 22.6875 5.511719 22.753906 5.3125 C 22.851562 5.007812 23.035156 4.757812 23.25 4.511719 C 23.292969 4.582031 23.328125 4.644531 23.359375 4.710938 C 23.5625 5.121094 23.667969 5.550781 23.660156 6.007812 C 23.660156 6.230469 23.609375 6.4375 23.519531 6.640625 C 23.40625 6.871094 23.28125 7.101562 23.160156 7.328125 C 23.132812 7.375 23.101562 7.417969 23.078125 7.464844 C 23.257812 7.839844 23.355469 8.234375 23.457031 8.628906 C 23.464844 8.628906 23.472656 8.628906 23.480469 8.628906 C 23.488281 8.609375 23.492188 8.582031 23.492188 8.5625 C 23.492188 8.363281 23.496094 8.167969 23.492188 7.96875 C 23.488281 7.839844 23.519531 7.722656 23.5625 7.605469 C 23.695312 7.28125 23.921875 7.035156 24.238281 6.851562 C 24.269531 6.960938 24.304688 7.070312 24.328125 7.171875 C 24.402344 7.507812 24.425781 7.84375 24.371094 8.183594 C 24.34375 8.378906 24.253906 8.546875 24.136719 8.695312 C 23.984375 8.890625 23.820312 9.078125 23.660156 9.265625 C 23.625 9.3125 23.609375 9.347656 23.621094 9.410156 C 23.679688 9.753906 23.710938 10.097656 23.726562 10.441406 C 23.726562 10.476562 23.734375 10.511719 23.738281 10.546875 C 23.75 10.546875 23.757812 10.546875 23.761719 10.546875 C 23.773438 10.507812 23.777344 10.472656 23.789062 10.429688 C 23.828125 10.195312 23.871094 9.957031 23.972656 9.738281 C 24.066406 9.53125 24.21875 9.378906 24.398438 9.261719 C 24.511719 9.183594 24.632812 9.128906 24.765625 9.050781 C 24.792969 9.351562 24.804688 9.640625 24.757812 9.929688 C 24.710938 10.214844 24.585938 10.464844 24.382812 10.671875 C 24.253906 10.800781 24.117188 10.917969 23.976562 11.042969 C 23.917969 11.09375 23.851562 11.136719 23.789062 11.191406 C 23.761719 11.210938 23.742188 11.242188 23.738281 11.273438 C 23.722656 11.707031 23.660156 12.132812 23.574219 12.566406 C 23.570312 12.582031 23.574219 12.59375 23.589844 12.617188 C 23.597656 12.601562 23.621094 12.585938 23.625 12.566406 C 23.6875 12.410156 23.738281 12.25 23.808594 12.097656 C 23.925781 11.835938 24.082031 11.605469 24.296875 11.414062 C 24.519531 11.222656 24.78125 11.109375 25.074219 11.066406 C 25.09375 11.0625 25.121094 11.066406 25.140625 11.070312 C 25.054688 11.40625 25.007812 11.75 24.839844 12.050781 C 24.679688 12.339844 24.449219 12.558594 24.164062 12.714844 C 23.941406 12.832031 23.710938 12.925781 23.464844 13.035156 C 23.371094 13.351562 23.261719 13.6875 23.152344 14.027344 C 23.160156 14.027344 23.164062 14.03125 23.167969 14.03125 C 23.25 13.929688 23.328125 13.820312 23.414062 13.722656 C 23.609375 13.492188 23.824219 13.28125 24.105469 13.160156 C 24.335938 13.0625 24.578125 13.019531 24.839844 13.007812 C 24.828125 13.050781 24.824219 13.082031 24.816406 13.113281 C 24.707031 13.507812 24.496094 13.851562 24.222656 14.15625 C 24.050781 14.351562 23.828125 14.484375 23.59375 14.582031 C 23.359375 14.679688 23.117188 14.761719 22.878906 14.84375 C 22.8125 14.863281 22.769531 14.894531 22.734375 14.957031 C 22.589844 15.207031 22.441406 15.453125 22.300781 15.703125 C 22.285156 15.730469 22.273438 15.753906 22.253906 15.792969 C 22.3125 15.785156 22.339844 15.746094 22.367188 15.71875 C 22.554688 15.554688 22.738281 15.386719 22.921875 15.21875 C 23.113281 15.046875 23.339844 14.957031 23.585938 14.902344 C 23.800781 14.863281 24.019531 14.851562 24.246094 14.851562 C 24.347656 14.851562 24.371094 14.898438 24.316406 14.980469 C 24.023438 15.402344 23.707031 15.800781 23.25 16.058594 C 23 16.203125 22.730469 16.277344 22.441406 16.316406 C 22.277344 16.335938 22.109375 16.351562 21.945312 16.367188 C 21.875 16.371094 21.824219 16.398438 21.78125 16.464844 C 21.59375 16.761719 21.378906 17.035156 21.140625 17.292969 C 21.109375 17.332031 21.082031 17.363281 21.058594 17.414062 C 21.082031 17.402344 21.105469 17.398438 21.121094 17.382812 C 21.398438 17.199219 21.664062 17.007812 21.945312 16.828125 C 22.074219 16.746094 22.21875 16.675781 22.367188 16.621094 C 22.6875 16.5 23.015625 16.539062 23.339844 16.628906 C 23.425781 16.652344 23.441406 16.699219 23.382812 16.78125 C 23.230469 17.003906 23.050781 17.199219 22.839844 17.363281 C 22.261719 17.8125 21.597656 17.953125 20.878906 17.910156 C 20.792969 17.90625 20.707031 17.894531 20.621094 17.890625 C 20.59375 17.890625 20.558594 17.898438 20.539062 17.914062 C 20.285156 18.132812 20.035156 18.351562 19.789062 18.566406 C 19.785156 18.570312 19.78125 18.585938 19.765625 18.617188 C 19.816406 18.597656 19.851562 18.585938 19.882812 18.570312 C 20.160156 18.449219 20.441406 18.351562 20.738281 18.300781 C 21.175781 18.230469 21.597656 18.285156 21.996094 18.496094 C 22.082031 18.542969 22.09375 18.585938 22.023438 18.640625 C 21.652344 18.902344 21.28125 19.164062 20.839844 19.285156 C 20.558594 19.363281 20.269531 19.371094 19.980469 19.332031 C 19.699219 19.289062 19.421875 19.21875 19.148438 19.125 C 19.09375 19.105469 19.046875 19.09375 18.992188 19.132812 C 18.769531 19.273438 18.550781 19.417969 18.332031 19.5625 C 18.316406 19.574219 18.304688 19.582031 18.292969 19.613281 C 18.324219 19.609375 18.355469 19.601562 18.386719 19.597656 C 18.800781 19.511719 19.214844 19.5 19.625 19.632812 C 19.832031 19.699219 20.019531 19.796875 20.183594 19.933594 C 20.199219 19.945312 20.21875 19.960938 20.234375 19.976562 C 20.246094 19.984375 20.25 20 20.257812 20.007812 C 20.246094 20.019531 20.242188 20.035156 20.230469 20.039062 C 19.867188 20.304688 19.46875 20.433594 19.011719 20.398438 C 18.539062 20.363281 18.109375 20.199219 17.679688 20.015625 C 17.644531 20 17.609375 19.984375 17.578125 19.96875 C 17.535156 19.945312 17.5 19.953125 17.460938 19.972656 C 17.195312 20.121094 16.914062 20.234375 16.625 20.332031 C 16.617188 20.335938 16.601562 20.34375 16.589844 20.367188 C 16.628906 20.367188 16.675781 20.367188 16.71875 20.367188 C 16.890625 20.378906 17.066406 20.382812 17.238281 20.402344 C 17.582031 20.445312 17.847656 20.625 18.0625 20.890625 C 18.125 20.96875 18.1875 21.046875 18.257812 21.132812 C 18.132812 21.167969 18.019531 21.210938 17.90625 21.234375 C 17.578125 21.316406 17.246094 21.335938 16.914062 21.246094 C 16.652344 21.167969 16.429688 21.019531 16.230469 20.839844 C 16.140625 20.757812 16.046875 20.664062 15.960938 20.578125 C 15.925781 20.542969 15.886719 20.53125 15.835938 20.546875 C 15.464844 20.648438 15.078125 20.714844 14.695312 20.773438 C 14.679688 20.773438 14.667969 20.777344 14.632812 20.789062 C 14.667969 20.820312 14.695312 20.839844 14.722656 20.855469 C 15.074219 21.070312 15.410156 21.3125 15.738281 21.5625 C 15.765625 21.582031 15.789062 21.605469 15.816406 21.628906 C 15.917969 21.742188 15.925781 21.867188 15.832031 21.96875 C 15.746094 22.066406 15.589844 22.085938 15.480469 22.003906 C 15.320312 21.890625 15.171875 21.769531 15.011719 21.65625 C 14.796875 21.507812 14.585938 21.347656 14.363281 21.214844 C 13.949219 20.972656 13.515625 20.964844 13.09375 21.195312 C 12.953125 21.265625 12.820312 21.347656 12.691406 21.441406 C 12.4375 21.621094 12.191406 21.808594 11.941406 22 C 11.816406 22.085938 11.664062 22.070312 11.570312 21.964844 C 11.503906 21.886719 11.496094 21.785156 11.550781 21.695312 C 11.582031 21.644531 11.628906 21.597656 11.675781 21.5625 C 12.007812 21.308594 12.34375 21.066406 12.703125 20.84375 C 12.730469 20.828125 12.75 20.808594 12.789062 20.785156 C 12.621094 20.757812 12.472656 20.738281 12.328125 20.707031 C 12.082031 20.65625 11.839844 20.605469 11.597656 20.546875 C 11.535156 20.53125 11.5 20.546875 11.453125 20.589844 C 11.371094 20.671875 11.285156 20.753906 11.199219 20.835938 C 10.726562 21.285156 10.167969 21.394531 9.550781 21.246094 C 9.425781 21.214844 9.304688 21.171875 9.175781 21.136719 C 9.457031 20.710938 9.804688 20.410156 10.332031 20.382812 C 10.472656 20.378906 10.605469 20.371094 10.742188 20.367188 C 10.769531 20.367188 10.796875 20.363281 10.828125 20.347656 C 10.730469 20.3125 10.632812 20.277344 10.539062 20.234375 C 10.347656 20.152344 10.152344 20.066406 9.96875 19.972656 C 9.914062 19.945312 9.867188 19.960938 9.820312 19.984375 C 9.558594 20.085938 9.296875 20.195312 9.03125 20.28125 C 8.710938 20.386719 8.375 20.433594 8.035156 20.386719 C 7.710938 20.347656 7.429688 20.214844 7.164062 20.007812 C 7.21875 19.960938 7.265625 19.921875 7.3125 19.878906 C 7.664062 19.625 8.0625 19.527344 8.496094 19.53125 C 8.683594 19.53125 8.875 19.558594 9.058594 19.597656 C 9.082031 19.601562 9.113281 19.601562 9.148438 19.59375 C 9.105469 19.5625 9.058594 19.53125 9.011719 19.5 C 8.832031 19.382812 8.648438 19.269531 8.46875 19.140625 C 8.40625 19.101562 8.355469 19.09375 8.289062 19.117188 C 7.992188 19.214844 7.691406 19.289062 7.382812 19.332031 C 6.941406 19.382812 6.523438 19.304688 6.140625 19.089844 C 5.910156 18.960938 5.695312 18.8125 5.472656 18.675781 C 5.464844 18.667969 5.453125 18.660156 5.449219 18.65625 C 5.34375 18.570312 5.34375 18.542969 5.464844 18.480469 C 5.894531 18.253906 6.34375 18.214844 6.816406 18.3125 C 7.0625 18.363281 7.296875 18.445312 7.527344 18.546875 C 7.566406 18.5625 7.609375 18.578125 7.660156 18.578125 C 7.644531 18.5625 7.632812 18.546875 7.617188 18.53125 C 7.386719 18.332031 7.164062 18.132812 6.933594 17.925781 C 6.890625 17.886719 6.851562 17.875 6.789062 17.878906 C 6.347656 17.929688 5.917969 17.914062 5.488281 17.796875 C 4.894531 17.632812 4.433594 17.289062 4.070312 16.796875 C 4.058594 16.785156 4.050781 16.773438 4.042969 16.761719 C 4 16.683594 4.015625 16.636719 4.101562 16.613281 C 4.515625 16.496094 4.921875 16.488281 5.304688 16.710938 C 5.488281 16.8125 5.667969 16.929688 5.847656 17.046875 C 5.996094 17.144531 6.144531 17.25 6.289062 17.351562 C 6.308594 17.367188 6.332031 17.375 6.371094 17.375 C 6.355469 17.355469 6.34375 17.332031 6.324219 17.308594 C 6.074219 17.035156 5.84375 16.742188 5.640625 16.429688 C 5.605469 16.371094 5.558594 16.359375 5.5 16.355469 C 5.289062 16.335938 5.085938 16.316406 4.875 16.289062 C 4.417969 16.222656 4.035156 16.011719 3.707031 15.695312 C 3.492188 15.484375 3.308594 15.246094 3.132812 15 C 3.121094 14.984375 3.113281 14.972656 3.101562 14.957031 C 3.078125 14.894531 3.09375 14.859375 3.160156 14.859375 C 3.257812 14.851562 3.347656 14.851562 3.445312 14.863281 C 3.609375 14.878906 3.777344 14.898438 3.941406 14.929688 C 4.132812 14.964844 4.304688 15.042969 4.449219 15.175781 C 4.664062 15.367188 4.875 15.554688 5.089844 15.746094 C 5.109375 15.765625 5.136719 15.78125 5.171875 15.792969 C 5.160156 15.769531 5.15625 15.746094 5.144531 15.726562 C 4.992188 15.457031 4.832031 15.195312 4.679688 14.925781 C 4.652344 14.878906 4.625 14.863281 4.578125 14.847656 C 4.347656 14.769531 4.117188 14.6875 3.890625 14.605469 C 3.382812 14.417969 3.042969 14.042969 2.800781 13.570312 C 2.71875 13.410156 2.667969 13.242188 2.601562 13.074219 C 2.59375 13.058594 2.59375 13.035156 2.589844 13.007812 C 2.75 13 2.898438 13.03125 3.046875 13.0625 C 3.398438 13.140625 3.6875 13.339844 3.921875 13.605469 C 4.019531 13.71875 4.109375 13.835938 4.203125 13.949219 C 4.21875 13.964844 4.230469 13.984375 4.257812 13.996094 C 4.257812 13.976562 4.257812 13.949219 4.25 13.929688 C 4.164062 13.648438 4.070312 13.363281 3.988281 13.078125 C 3.972656 13.019531 3.9375 13 3.890625 12.980469 C 3.660156 12.902344 3.445312 12.8125 3.234375 12.6875 C 2.800781 12.4375 2.527344 12.0625 2.410156 11.574219 C 2.371094 11.410156 2.335938 11.242188 2.292969 11.0625 C 2.339844 11.066406 2.386719 11.066406 2.425781 11.070312 C 2.800781 11.136719 3.109375 11.324219 3.34375 11.625 C 3.554688 11.894531 3.691406 12.195312 3.792969 12.519531 C 3.8125 12.574219 3.8125 12.574219 3.867188 12.625 C 3.867188 12.59375 3.871094 12.574219 3.867188 12.558594 C 3.777344 12.144531 3.71875 11.730469 3.707031 11.304688 C 3.707031 11.246094 3.6875 11.214844 3.640625 11.179688 C 3.429688 11.027344 3.226562 10.863281 3.046875 10.667969 C 2.816406 10.421875 2.6875 10.128906 2.667969 9.792969 C 2.652344 9.570312 2.667969 9.34375 2.667969 9.121094 C 2.667969 9.105469 2.671875 9.097656 2.683594 9.066406 C 2.75 9.097656 2.800781 9.128906 2.855469 9.160156 C 3.308594 9.375 3.542969 9.742188 3.621094 10.226562 C 3.636719 10.316406 3.652344 10.40625 3.664062 10.496094 C 3.671875 10.511719 3.675781 10.527344 3.703125 10.539062 C 3.707031 10.519531 3.710938 10.496094 3.710938 10.476562 C 3.722656 10.117188 3.757812 9.765625 3.820312 9.410156 C 3.828125 9.351562 3.8125 9.316406 3.777344 9.277344 C 3.671875 9.152344 3.5625 9.03125 3.457031 8.90625 C 3.390625 8.824219 3.324219 8.738281 3.257812 8.65625 C 3.082031 8.429688 3.042969 8.164062 3.03125 7.890625 C 3.015625 7.546875 3.082031 7.21875 3.183594 6.890625 C 3.183594 6.886719 3.195312 6.878906 3.203125 6.871094 C 3.332031 6.933594 3.445312 7.023438 3.546875 7.125 C 3.71875 7.296875 3.839844 7.496094 3.910156 7.726562 C 3.925781 7.777344 3.9375 7.839844 3.9375 7.894531 C 3.941406 8.113281 3.9375 8.332031 3.9375 8.546875 C 3.9375 8.582031 3.9375 8.621094 3.9375 8.65625 C 3.949219 8.65625 3.957031 8.660156 3.96875 8.660156 C 3.976562 8.628906 3.992188 8.59375 4.003906 8.5625 C 4.089844 8.210938 4.183594 7.859375 4.335938 7.53125 C 4.355469 7.484375 4.347656 7.457031 4.328125 7.414062 C 4.234375 7.261719 4.140625 7.105469 4.058594 6.949219 C 3.949219 6.730469 3.851562 6.507812 3.804688 6.265625 C 3.753906 6 3.777344 5.730469 3.824219 5.46875 C 3.886719 5.136719 4.007812 4.828125 4.183594 4.527344 C 4.203125 4.546875 4.222656 4.5625 4.238281 4.578125 C 4.402344 4.765625 4.546875 4.972656 4.644531 5.207031 C 4.714844 5.382812 4.75 5.566406 4.742188 5.757812 C 4.714844 6.082031 4.695312 6.402344 4.609375 6.714844 C 4.601562 6.742188 4.597656 6.769531 4.609375 6.796875 C 4.625 6.777344 4.632812 6.757812 4.648438 6.738281 C 4.832031 6.367188 5.039062 6.003906 5.269531 5.660156 C 5.304688 5.609375 5.308594 5.5625 5.289062 5.5 C 5.21875 5.320312 5.15625 5.148438 5.09375 4.96875 C 4.988281 4.660156 4.988281 4.351562 5.097656 4.039062 C 5.21875 3.714844 5.382812 3.421875 5.605469 3.167969 C 5.621094 3.144531 5.636719 3.125 5.664062 3.09375 C 5.785156 3.226562 5.855469 3.375 5.902344 3.53125 C 5.984375 3.8125 5.96875 4.09375 5.914062 4.378906 C 5.886719 4.488281 5.855469 4.609375 5.828125 4.722656 C 5.820312 4.75 5.8125 4.777344 5.828125 4.816406 C 5.847656 4.796875 5.867188 4.78125 5.882812 4.761719 C 6.132812 4.421875 6.40625 4.105469 6.707031 3.816406 C 6.75 3.78125 6.75 3.742188 6.75 3.695312 C 6.742188 3.503906 6.75 3.316406 6.785156 3.125 C 6.859375 2.757812 7.0625 2.457031 7.335938 2.21875 C 7.46875 2.105469 7.609375 2 7.757812 1.890625 C 7.929688 2.457031 7.699219 2.910156 7.382812 3.359375 C 7.429688 3.347656 7.453125 3.339844 7.476562 3.324219 C 7.542969 3.285156 7.609375 3.242188 7.664062 3.191406 C 7.710938 3.15625 7.75 3.109375 7.78125 3.0625 C 7.890625 2.890625 8.007812 2.726562 8.171875 2.601562 C 8.320312 2.488281 8.488281 2.417969 8.671875 2.398438 C 8.753906 2.386719 8.832031 2.367188 8.914062 2.355469 C 9 2.34375 9.089844 2.324219 9.171875 2.34375 C 9.207031 2.40625 9.171875 2.441406 9.144531 2.480469 C 9.03125 2.648438 8.886719 2.792969 8.734375 2.929688 C 8.5625 3.078125 8.351562 3.136719 8.144531 3.195312 C 8.078125 3.21875 8.007812 3.207031 7.9375 3.207031 C 7.796875 3.210938 7.746094 3.226562 7.628906 3.320312 C 7.578125 3.359375 7.527344 3.398438 7.480469 3.433594 C 7.460938 3.449219 7.449219 3.464844 7.433594 3.488281 C 7.992188 3.234375 8.507812 3.386719 9.042969 3.628906 C 8.976562 3.695312 8.929688 3.75 8.867188 3.796875 C 8.636719 3.988281 8.371094 4.085938 8.070312 4.09375 C 7.761719 4.109375 7.464844 4.054688 7.179688 3.9375 C 7.113281 3.90625 7.066406 3.910156 7.007812 3.972656 C 6.734375 4.296875 6.453125 4.613281 6.167969 4.9375 C 6.148438 4.957031 6.132812 4.984375 6.113281 5.007812 C 6.132812 5.039062 6.160156 5.050781 6.191406 5.027344 C 6.207031 5.019531 6.222656 5.007812 6.234375 4.992188 C 6.476562 4.808594 6.75 4.714844 7.050781 4.710938 C 7.410156 4.707031 7.738281 4.808594 8.074219 4.945312 C 7.96875 5.078125 7.847656 5.183594 7.710938 5.257812 C 7.402344 5.4375 7.070312 5.484375 6.722656 5.46875 C 6.488281 5.460938 6.257812 5.417969 6.027344 5.355469 C 5.871094 5.316406 5.867188 5.339844 5.800781 5.4375 C 5.574219 5.757812 5.375 6.085938 5.203125 6.433594 C 5.1875 6.460938 5.175781 6.492188 5.167969 6.515625 C 5.167969 6.519531 5.171875 6.53125 5.171875 6.546875 C 5.207031 6.53125 5.238281 6.511719 5.269531 6.496094 C 5.546875 6.34375 5.8125 6.179688 6.109375 6.058594 C 6.382812 5.953125 6.667969 5.90625 6.957031 5.984375 C 7 5.992188 7.046875 6.011719 7.101562 6.027344 C 7.046875 6.109375 7 6.1875 6.941406 6.25 C 6.542969 6.726562 6.035156 6.96875 5.417969 6.957031 C 5.292969 6.957031 5.171875 6.925781 5.042969 6.902344 C 4.980469 6.890625 4.949219 6.90625 4.925781 6.960938 C 4.75 7.359375 4.59375 7.757812 4.464844 8.167969 C 4.460938 8.179688 4.460938 8.1875 4.460938 8.214844 C 4.515625 8.195312 4.546875 8.152344 4.585938 8.121094 C 4.757812 7.984375 4.921875 7.839844 5.089844 7.710938 C 5.34375 7.515625 5.625 7.367188 5.945312 7.300781 C 6.109375 7.269531 6.265625 7.261719 6.445312 7.289062 C 6.425781 7.34375 6.410156 7.386719 6.390625 7.433594 C 6.195312 7.84375 5.878906 8.132812 5.464844 8.308594 C 5.175781 8.429688 4.875 8.480469 4.5625 8.457031 C 4.511719 8.449219 4.453125 8.449219 4.402344 8.445312 C 4.398438 8.445312 4.398438 8.449219 4.382812 8.457031 C 4.265625 8.859375 4.171875 9.28125 4.121094 9.738281 C 4.164062 9.707031 4.183594 9.691406 4.199219 9.675781 C 4.382812 9.503906 4.558594 9.316406 4.75 9.148438 C 4.972656 8.953125 5.207031 8.777344 5.492188 8.691406 C 5.65625 8.640625 5.828125 8.621094 6.011719 8.664062 C 5.863281 9.070312 5.621094 9.40625 5.269531 9.652344 C 4.921875 9.898438 4.527344 10.003906 4.089844 9.984375 C 4.023438 10.480469 4.03125 10.96875 4.042969 11.460938 C 4.117188 11.472656 4.132812 11.425781 4.152344 11.386719 C 4.238281 11.230469 4.320312 11.066406 4.417969 10.917969 C 4.597656 10.640625 4.816406 10.398438 5.089844 10.210938 C 5.246094 10.097656 5.421875 10.011719 5.617188 9.96875 C 5.667969 9.957031 5.71875 9.957031 5.773438 9.953125 C 5.71875 10.609375 5.210938 11.519531 4.085938 11.65625 C 4.132812 12.15625 4.21875 12.648438 4.339844 13.128906 C 4.417969 13.140625 4.414062 13.089844 4.429688 13.050781 C 4.476562 12.914062 4.515625 12.769531 4.570312 12.632812 C 4.707031 12.304688 4.882812 12.003906 5.144531 11.757812 C 5.300781 11.617188 5.46875 11.507812 5.671875 11.457031 C 5.683594 11.453125 5.695312 11.457031 5.71875 11.453125 C 5.730469 11.878906 5.632812 12.265625 5.40625 12.625 C 5.179688 12.984375 4.867188 13.230469 4.453125 13.328125 C 4.464844 13.558594 4.957031 14.761719 5.097656 14.882812 C 5.105469 14.816406 5.109375 14.765625 5.109375 14.710938 C 5.113281 14.425781 5.113281 14.144531 5.167969 13.867188 C 5.234375 13.515625 5.367188 13.195312 5.648438 12.960938 C 5.699219 12.917969 5.753906 12.882812 5.820312 12.832031 C 6 13.242188 6.019531 13.648438 5.902344 14.058594 C 5.78125 14.472656 5.53125 14.792969 5.167969 15.039062 C 5.390625 15.5 5.667969 15.921875 5.980469 16.320312 C 6.027344 16.277344 6.011719 16.242188 6.003906 16.203125 C 5.917969 15.742188 5.871094 15.285156 6.015625 14.820312 C 6.078125 14.617188 6.183594 14.433594 6.355469 14.277344 C 6.621094 14.632812 6.703125 15.03125 6.675781 15.457031 C 6.644531 15.882812 6.503906 16.257812 6.175781 16.554688 C 6.425781 16.910156 6.707031 17.21875 7.03125 17.515625 C 7.0625 17.449219 7.046875 17.398438 7.035156 17.339844 C 6.992188 17.136719 6.949219 16.929688 6.921875 16.726562 C 6.886719 16.421875 6.917969 16.125 7.046875 15.84375 C 7.105469 15.710938 7.167969 15.632812 7.265625 15.566406 C 7.5 15.898438 7.632812 16.273438 7.660156 16.679688 C 7.679688 17.089844 7.589844 17.464844 7.316406 17.796875 C 7.710938 18.175781 8.125 18.515625 8.585938 18.792969 C 8.589844 18.789062 8.601562 18.777344 8.605469 18.773438 C 8.589844 18.75 8.585938 18.722656 8.566406 18.707031 C 8.203125 18.367188 8.128906 17.9375 8.15625 17.46875 C 8.167969 17.269531 8.203125 17.070312 8.226562 16.859375 C 8.339844 16.890625 8.421875 16.945312 8.5 17.003906 C 8.792969 17.210938 8.941406 17.511719 8.984375 17.859375 C 9.023438 18.136719 9.011719 18.414062 8.996094 18.691406 C 8.992188 18.765625 8.996094 18.84375 8.980469 18.914062 C 8.960938 19.019531 8.996094 19.074219 9.089844 19.121094 C 9.363281 19.257812 9.636719 19.410156 9.90625 19.546875 C 9.996094 19.59375 10.085938 19.628906 10.179688 19.671875 C 10.214844 19.683594 10.246094 19.695312 10.308594 19.714844 C 10.285156 19.675781 10.28125 19.648438 10.265625 19.632812 C 10.203125 19.582031 10.144531 19.527344 10.082031 19.480469 C 9.722656 19.21875 9.550781 18.847656 9.507812 18.417969 C 9.492188 18.234375 9.488281 18.042969 9.484375 17.859375 C 9.484375 17.828125 9.484375 17.796875 9.484375 17.761719 C 9.625 17.78125 9.742188 17.839844 9.863281 17.90625 C 10.152344 18.074219 10.324219 18.335938 10.425781 18.65625 C 10.515625 18.941406 10.546875 19.234375 10.578125 19.53125 C 10.589844 19.609375 10.597656 19.683594 10.597656 19.757812 C 10.597656 19.824219 10.625 19.859375 10.691406 19.878906 C 10.921875 19.953125 11.148438 20.035156 11.371094 20.101562 C 11.566406 20.15625 11.761719 20.199219 11.957031 20.246094 C 12 20.261719 12.027344 20.261719 12.0625 20.265625 Z M 12.0625 20.265625 " fill-opacity="1" fill-rule="nonzero"/><path fill="#267048" d="M 4.253906 21.5625 C 4.273438 21.574219 4.289062 21.589844 4.304688 21.589844 C 4.578125 21.613281 4.847656 21.640625 5.121094 21.664062 C 5.425781 21.691406 5.734375 21.710938 6.042969 21.742188 C 6.40625 21.777344 6.769531 21.824219 7.128906 21.871094 C 7.417969 21.910156 7.710938 21.957031 8.007812 22.003906 C 8.414062 22.066406 8.800781 22.167969 9.191406 22.285156 C 9.585938 22.410156 9.972656 22.554688 10.335938 22.75 C 10.34375 22.753906 10.351562 22.753906 10.359375 22.757812 C 10.460938 22.855469 10.566406 22.84375 10.695312 22.800781 C 11.066406 22.667969 11.453125 22.621094 11.847656 22.597656 C 12.140625 22.585938 12.433594 22.5625 12.722656 22.542969 C 12.828125 22.539062 12.933594 22.515625 13.035156 22.515625 C 13.109375 22.515625 13.179688 22.539062 13.246094 22.539062 C 13.613281 22.539062 13.984375 22.542969 14.351562 22.539062 C 14.652344 22.53125 14.953125 22.5625 15.25 22.589844 C 15.679688 22.621094 16.109375 22.679688 16.523438 22.816406 C 16.5625 22.832031 16.609375 22.839844 16.652344 22.859375 C 16.71875 22.898438 16.769531 22.886719 16.832031 22.839844 C 17.019531 22.695312 17.238281 22.609375 17.460938 22.523438 C 17.683594 22.433594 17.914062 22.351562 18.144531 22.285156 C 18.441406 22.203125 18.742188 22.117188 19.042969 22.066406 C 19.566406 21.972656 20.09375 21.890625 20.621094 21.824219 C 21.035156 21.769531 21.449219 21.742188 21.867188 21.703125 C 22.171875 21.675781 22.472656 21.65625 22.773438 21.628906 C 22.863281 21.625 22.953125 21.605469 23.050781 21.589844 C 23.035156 21.554688 23.03125 21.527344 23.019531 21.5 C 22.933594 21.316406 22.851562 21.136719 22.765625 20.957031 C 22.714844 20.855469 22.714844 20.761719 22.761719 20.664062 C 22.867188 20.425781 23.078125 20.316406 23.3125 20.246094 C 23.480469 20.195312 23.644531 20.1875 23.816406 20.238281 C 24.058594 20.3125 24.234375 20.496094 24.28125 20.746094 C 24.347656 21.105469 24.417969 21.464844 24.492188 21.820312 C 24.515625 21.953125 24.550781 22.085938 24.578125 22.21875 C 24.582031 22.242188 24.574219 22.269531 24.5625 22.292969 C 24.464844 22.527344 24.285156 22.6875 24.074219 22.820312 C 23.859375 22.953125 23.621094 23.03125 23.378906 23.097656 C 23.027344 23.195312 22.667969 23.242188 22.304688 23.277344 C 22.015625 23.300781 21.730469 23.339844 21.445312 23.363281 C 21.21875 23.382812 20.988281 23.398438 20.761719 23.414062 C 20.449219 23.441406 20.136719 23.476562 19.820312 23.503906 C 19.386719 23.539062 18.957031 23.609375 18.523438 23.691406 C 18.320312 23.726562 18.117188 23.785156 17.914062 23.832031 C 17.902344 23.835938 17.890625 23.839844 17.863281 23.855469 C 17.875 23.921875 17.886719 23.984375 17.902344 24.050781 C 17.910156 24.113281 17.929688 24.164062 17.886719 24.226562 C 17.871094 24.25 17.871094 24.292969 17.871094 24.324219 C 17.871094 24.523438 17.871094 24.726562 17.871094 24.929688 C 17.871094 25.09375 17.777344 25.179688 17.617188 25.179688 C 17.566406 25.179688 17.511719 25.175781 17.460938 25.179688 C 17.210938 25.214844 16.984375 25.132812 16.769531 25.027344 C 16.527344 24.902344 16.296875 24.765625 16.101562 24.574219 C 15.976562 24.453125 15.863281 24.316406 15.796875 24.152344 C 15.769531 24.09375 15.734375 24.078125 15.671875 24.078125 C 15.488281 24.078125 15.300781 24.070312 15.113281 24.078125 C 14.980469 24.082031 14.84375 24.109375 14.710938 24.101562 C 13.71875 24.050781 12.71875 24.09375 11.726562 24.070312 C 11.632812 24.070312 11.582031 24.09375 11.539062 24.179688 C 11.4375 24.40625 11.265625 24.578125 11.070312 24.726562 C 10.828125 24.902344 10.574219 25.058594 10.292969 25.144531 C 10.121094 25.195312 9.953125 25.242188 9.78125 25.199219 C 9.617188 25.160156 9.511719 25.050781 9.519531 24.882812 C 9.527344 24.578125 9.523438 24.273438 9.523438 23.96875 C 9.523438 23.867188 9.519531 23.855469 9.425781 23.835938 C 9.1875 23.78125 8.945312 23.71875 8.703125 23.675781 C 8.351562 23.613281 7.996094 23.5625 7.644531 23.523438 C 7.351562 23.488281 7.054688 23.464844 6.757812 23.441406 C 6.277344 23.398438 5.796875 23.359375 5.320312 23.3125 C 4.960938 23.277344 4.601562 23.234375 4.25 23.175781 C 3.851562 23.101562 3.464844 22.984375 3.132812 22.75 C 2.972656 22.636719 2.847656 22.496094 2.765625 22.324219 C 2.742188 22.277344 2.742188 22.234375 2.753906 22.1875 C 2.820312 21.871094 2.894531 21.546875 2.960938 21.230469 C 2.988281 21.070312 3.019531 20.90625 3.050781 20.746094 C 3.101562 20.476562 3.273438 20.3125 3.542969 20.246094 C 3.808594 20.179688 4.042969 20.246094 4.273438 20.363281 C 4.398438 20.425781 4.488281 20.53125 4.550781 20.65625 C 4.609375 20.761719 4.609375 20.867188 4.558594 20.972656 C 4.46875 21.15625 4.382812 21.347656 4.296875 21.53125 C 4.269531 21.527344 4.265625 21.542969 4.253906 21.5625 Z M 17.683594 24.980469 C 17.632812 24.917969 17.59375 24.839844 17.53125 24.789062 C 17.105469 24.394531 16.601562 24.164062 16.03125 24.078125 C 15.992188 24.070312 15.953125 24.078125 15.910156 24.078125 C 15.960938 24.214844 16.109375 24.410156 16.246094 24.523438 C 16.472656 24.714844 16.726562 24.855469 17 24.96875 C 17.15625 25.035156 17.328125 25.070312 17.496094 25.070312 C 17.566406 25.070312 17.628906 25.050781 17.683594 24.980469 Z M 11.40625 24.0625 C 11.355469 24.066406 11.316406 24.066406 11.273438 24.070312 C 10.714844 24.167969 10.21875 24.40625 9.804688 24.800781 C 9.769531 24.835938 9.734375 24.878906 9.703125 24.921875 C 9.660156 24.980469 9.671875 25.015625 9.734375 25.035156 C 9.792969 25.050781 9.863281 25.066406 9.921875 25.0625 C 10.101562 25.046875 10.269531 25 10.433594 24.917969 C 10.632812 24.816406 10.828125 24.707031 11.003906 24.5625 C 11.15625 24.441406 11.28125 24.296875 11.382812 24.128906 C 11.390625 24.113281 11.398438 24.09375 11.40625 24.0625 Z M 23.855469 21.171875 C 23.96875 21.066406 24.050781 20.949219 24.085938 20.804688 C 24.101562 20.753906 24.113281 20.695312 24.097656 20.648438 C 24.058594 20.507812 23.964844 20.402344 23.816406 20.363281 C 23.574219 20.296875 23.347656 20.332031 23.132812 20.445312 C 23.035156 20.496094 22.953125 20.578125 22.902344 20.675781 C 22.832031 20.820312 22.882812 20.949219 23.035156 21.003906 C 23.125 21.035156 23.214844 21.035156 23.308594 21.015625 C 23.421875 20.988281 23.527344 20.957031 23.636719 20.933594 C 23.71875 20.910156 23.722656 20.910156 23.757812 20.984375 C 23.792969 21.039062 23.820312 21.101562 23.855469 21.171875 Z M 3.433594 21.179688 C 3.476562 21.089844 3.507812 21.03125 3.53125 20.964844 C 3.554688 20.910156 3.578125 20.902344 3.628906 20.917969 C 3.695312 20.9375 3.769531 20.964844 3.835938 20.976562 C 3.972656 21.003906 4.105469 21.046875 4.25 21 C 4.371094 20.957031 4.433594 20.859375 4.402344 20.738281 C 4.386719 20.679688 4.355469 20.625 4.320312 20.578125 C 4.121094 20.34375 3.675781 20.261719 3.398438 20.394531 C 3.242188 20.46875 3.132812 20.664062 3.21875 20.859375 C 3.273438 20.972656 3.339844 21.070312 3.433594 21.179688 Z M 13.316406 23.78125 C 13.230469 23.625 13.152344 23.496094 13.054688 23.378906 C 13.066406 23.367188 13.078125 23.359375 13.085938 23.355469 C 13.214844 23.277344 13.257812 23.179688 13.226562 23.035156 C 13.199219 22.914062 13.117188 22.84375 12.976562 22.832031 C 12.953125 22.824219 12.929688 22.824219 12.90625 22.824219 C 12.785156 22.824219 12.65625 22.824219 12.535156 22.824219 C 12.507812 22.824219 12.484375 22.832031 12.453125 22.835938 C 12.457031 23.148438 12.449219 23.460938 12.457031 23.769531 C 12.539062 23.769531 12.605469 23.769531 12.683594 23.769531 C 12.683594 23.640625 12.683594 23.523438 12.683594 23.40625 C 12.769531 23.390625 12.816406 23.425781 12.855469 23.480469 C 12.921875 23.578125 12.988281 23.675781 13.050781 23.769531 C 13.128906 23.78125 13.207031 23.78125 13.316406 23.78125 Z M 7.46875 22.789062 C 7.558594 22.785156 7.601562 22.824219 7.632812 22.886719 C 7.679688 22.96875 7.722656 23.054688 7.765625 23.136719 C 7.78125 23.164062 7.808594 23.195312 7.839844 23.203125 C 7.90625 23.21875 7.972656 23.21875 8.0625 23.226562 C 7.992188 23.0625 7.929688 22.921875 7.84375 22.792969 C 7.863281 22.789062 7.875 22.785156 7.890625 22.773438 C 8.007812 22.722656 8.070312 22.621094 8.058594 22.492188 C 8.050781 22.363281 7.976562 22.28125 7.839844 22.25 C 7.757812 22.230469 7.675781 22.226562 7.59375 22.214844 C 7.5 22.203125 7.410156 22.199219 7.304688 22.1875 C 7.269531 22.507812 7.234375 22.808594 7.199219 23.132812 C 7.277344 23.144531 7.347656 23.148438 7.425781 23.160156 C 7.433594 23.023438 7.453125 22.914062 7.46875 22.789062 Z M 21.296875 22.542969 C 21.289062 22.542969 21.28125 22.546875 21.273438 22.546875 C 21.257812 22.527344 21.238281 22.507812 21.222656 22.488281 C 21.136719 22.375 21.042969 22.261719 20.957031 22.148438 C 20.941406 22.128906 20.910156 22.097656 20.890625 22.097656 C 20.828125 22.101562 20.761719 22.085938 20.703125 22.132812 C 20.738281 22.433594 20.773438 22.742188 20.808594 23.0625 C 20.886719 23.050781 20.953125 23.039062 21.019531 23.035156 C 21.003906 22.867188 20.984375 22.707031 20.96875 22.554688 C 21.015625 22.578125 21.039062 22.613281 21.066406 22.644531 C 21.140625 22.742188 21.21875 22.84375 21.300781 22.941406 C 21.320312 22.96875 21.351562 23 21.378906 23 C 21.4375 23.003906 21.503906 23.003906 21.566406 22.964844 C 21.53125 22.65625 21.496094 22.351562 21.460938 22.035156 C 21.382812 22.046875 21.320312 22.050781 21.25 22.0625 C 21.257812 22.21875 21.28125 22.378906 21.296875 22.542969 Z M 8.351562 23.261719 C 8.371094 23.09375 8.390625 22.933594 8.417969 22.75 C 8.449219 22.804688 8.464844 22.832031 8.472656 22.859375 C 8.535156 22.984375 8.589844 23.105469 8.648438 23.230469 C 8.65625 23.257812 8.679688 23.292969 8.699219 23.296875 C 8.761719 23.3125 8.820312 23.3125 8.894531 23.316406 C 8.929688 22.996094 8.96875 22.691406 8.996094 22.375 C 8.917969 22.367188 8.859375 22.363281 8.785156 22.359375 C 8.765625 22.527344 8.746094 22.6875 8.726562 22.84375 C 8.695312 22.824219 8.679688 22.800781 8.667969 22.777344 C 8.605469 22.644531 8.546875 22.515625 8.484375 22.382812 C 8.457031 22.328125 8.421875 22.300781 8.359375 22.300781 C 8.320312 22.300781 8.277344 22.300781 8.234375 22.300781 C 8.203125 22.621094 8.152344 22.921875 8.136719 23.234375 C 8.222656 23.25 8.277344 23.257812 8.351562 23.261719 Z M 14.492188 23.136719 C 14.484375 22.996094 14.433594 22.898438 14.316406 22.851562 C 14.1875 22.800781 14.054688 22.800781 13.925781 22.851562 C 13.824219 22.890625 13.773438 22.96875 13.761719 23.078125 C 13.757812 23.183594 13.804688 23.273438 13.894531 23.324219 C 13.957031 23.355469 14.03125 23.375 14.101562 23.394531 C 14.140625 23.410156 14.183594 23.410156 14.21875 23.429688 C 14.246094 23.441406 14.273438 23.472656 14.273438 23.492188 C 14.273438 23.523438 14.25 23.558594 14.230469 23.574219 C 14.140625 23.628906 14.019531 23.589844 13.972656 23.492188 C 13.964844 23.472656 13.953125 23.445312 13.941406 23.421875 C 13.90625 23.425781 13.875 23.425781 13.84375 23.429688 C 13.8125 23.4375 13.777344 23.441406 13.746094 23.445312 C 13.738281 23.605469 13.8125 23.722656 13.953125 23.769531 C 14.070312 23.808594 14.195312 23.808594 14.3125 23.769531 C 14.476562 23.71875 14.558594 23.546875 14.5 23.382812 C 14.46875 23.285156 14.398438 23.234375 14.3125 23.203125 C 14.222656 23.179688 14.136719 23.152344 14.050781 23.121094 C 14.03125 23.117188 14 23.082031 14 23.070312 C 14.007812 23.046875 14.03125 23.019531 14.054688 23.011719 C 14.152344 22.972656 14.207031 23.003906 14.273438 23.121094 C 14.34375 23.136719 14.410156 23.136719 14.492188 23.136719 Z M 18.53125 22.972656 C 18.546875 23.144531 18.636719 23.261719 18.78125 23.28125 C 18.898438 23.296875 19.015625 23.292969 19.128906 23.242188 C 19.242188 23.1875 19.308594 23.078125 19.304688 22.957031 C 19.296875 22.824219 19.222656 22.734375 19.09375 22.691406 C 19.050781 22.679688 19.011719 22.675781 18.972656 22.667969 C 18.914062 22.65625 18.859375 22.652344 18.800781 22.636719 C 18.777344 22.628906 18.753906 22.605469 18.734375 22.585938 C 18.753906 22.558594 18.777344 22.527344 18.800781 22.515625 C 18.894531 22.476562 18.949219 22.507812 19.027344 22.613281 C 19.09375 22.605469 19.160156 22.589844 19.230469 22.578125 C 19.214844 22.441406 19.148438 22.351562 19.027344 22.316406 C 18.890625 22.28125 18.753906 22.296875 18.632812 22.367188 C 18.539062 22.417969 18.503906 22.503906 18.511719 22.609375 C 18.515625 22.707031 18.5625 22.785156 18.652344 22.824219 C 18.703125 22.851562 18.761719 22.859375 18.816406 22.871094 C 18.878906 22.886719 18.945312 22.886719 19.007812 22.902344 C 19.03125 22.90625 19.066406 22.9375 19.066406 22.957031 C 19.066406 22.984375 19.050781 23.023438 19.027344 23.046875 C 18.957031 23.105469 18.820312 23.085938 18.765625 23.003906 C 18.75 22.984375 18.742188 22.957031 18.726562 22.933594 C 18.664062 22.949219 18.597656 22.964844 18.53125 22.972656 Z M 6.128906 22.410156 C 5.96875 22.390625 5.820312 22.367188 5.679688 22.351562 C 5.683594 22.296875 5.695312 22.253906 5.699219 22.203125 C 5.828125 22.214844 5.945312 22.226562 6.0625 22.242188 C 6.183594 22.253906 6.183594 22.253906 6.191406 22.136719 C 6.191406 22.113281 6.183594 22.085938 6.183594 22.054688 C 5.949219 22.03125 5.722656 21.992188 5.488281 21.984375 C 5.453125 22.300781 5.40625 22.609375 5.386719 22.929688 C 5.636719 22.949219 5.867188 22.988281 6.113281 23 C 6.113281 22.929688 6.113281 22.871094 6.113281 22.808594 C 5.949219 22.789062 5.796875 22.769531 5.632812 22.753906 C 5.636719 22.6875 5.640625 22.625 5.648438 22.558594 C 5.800781 22.574219 5.945312 22.589844 6.097656 22.605469 C 6.109375 22.539062 6.117188 22.480469 6.128906 22.410156 Z M 21.949219 22.722656 C 21.945312 22.652344 21.941406 22.59375 21.929688 22.527344 C 22.082031 22.507812 22.222656 22.492188 22.375 22.472656 C 22.367188 22.398438 22.359375 22.34375 22.351562 22.277344 C 22.195312 22.292969 22.054688 22.308594 21.90625 22.324219 C 21.898438 22.265625 21.894531 22.21875 21.890625 22.171875 C 22.054688 22.152344 22.207031 22.132812 22.371094 22.113281 C 22.359375 22.039062 22.351562 21.984375 22.339844 21.917969 C 22.097656 21.941406 21.867188 21.972656 21.632812 22 C 21.667969 22.324219 21.703125 22.628906 21.742188 22.941406 C 21.992188 22.917969 22.226562 22.890625 22.46875 22.855469 C 22.457031 22.789062 22.453125 22.734375 22.449219 22.667969 C 22.277344 22.6875 22.121094 22.707031 21.949219 22.722656 Z M 14.664062 22.839844 C 14.664062 23.160156 14.664062 23.464844 14.664062 23.78125 C 14.910156 23.78125 15.144531 23.78125 15.382812 23.78125 C 15.382812 23.710938 15.382812 23.65625 15.382812 23.589844 C 15.210938 23.578125 15.046875 23.59375 14.894531 23.578125 C 14.894531 23.507812 14.894531 23.445312 14.894531 23.378906 C 15.046875 23.378906 15.1875 23.378906 15.335938 23.378906 C 15.335938 23.3125 15.335938 23.257812 15.335938 23.1875 C 15.179688 23.1875 15.039062 23.1875 14.894531 23.1875 C 14.894531 23.128906 14.894531 23.085938 14.894531 23.03125 C 15.058594 23.03125 15.207031 23.03125 15.371094 23.03125 C 15.367188 22.957031 15.367188 22.902344 15.359375 22.839844 C 15.121094 22.839844 14.894531 22.839844 14.664062 22.839844 Z M 19.371094 22.265625 C 19.40625 22.585938 19.441406 22.890625 19.476562 23.210938 C 19.554688 23.199219 19.625 23.1875 19.703125 23.183594 C 19.6875 23.046875 19.675781 22.921875 19.660156 22.792969 C 19.71875 22.789062 19.765625 22.777344 19.816406 22.773438 C 19.867188 22.769531 19.917969 22.761719 19.96875 22.757812 C 19.984375 22.890625 20 23.011719 20.015625 23.148438 C 20.09375 23.136719 20.164062 23.128906 20.242188 23.117188 C 20.203125 22.800781 20.175781 22.492188 20.128906 22.179688 C 20.046875 22.1875 19.980469 22.195312 19.90625 22.203125 C 19.917969 22.328125 19.929688 22.441406 19.945312 22.558594 C 19.835938 22.570312 19.738281 22.578125 19.640625 22.589844 C 19.625 22.464844 19.605469 22.351562 19.589844 22.234375 C 19.511719 22.246094 19.445312 22.253906 19.371094 22.265625 Z M 6.816406 22.882812 C 6.835938 22.957031 6.855469 23.023438 6.875 23.097656 C 6.953125 23.097656 7.023438 23.132812 7.105469 23.105469 C 7.101562 23.070312 7.097656 23.039062 7.085938 23.015625 C 7.023438 22.789062 6.964844 22.558594 6.898438 22.332031 C 6.832031 22.089844 6.886719 22.144531 6.640625 22.117188 C 6.636719 22.117188 6.625 22.121094 6.609375 22.128906 C 6.460938 22.414062 6.308594 22.707031 6.144531 23.015625 C 6.234375 23.023438 6.308594 23.035156 6.382812 23.046875 C 6.421875 22.980469 6.453125 22.917969 6.488281 22.851562 C 6.601562 22.855469 6.703125 22.871094 6.816406 22.882812 Z M 4.582031 22.835938 C 4.816406 22.851562 5.03125 22.898438 5.261719 22.902344 C 5.269531 22.835938 5.273438 22.777344 5.277344 22.71875 C 5.125 22.695312 4.988281 22.679688 4.832031 22.660156 C 4.859375 22.414062 4.882812 22.171875 4.910156 21.921875 C 4.832031 21.910156 4.765625 21.902344 4.683594 21.890625 C 4.652344 22.210938 4.617188 22.511719 4.582031 22.835938 Z M 20.640625 23.078125 C 20.605469 22.753906 20.566406 22.449219 20.53125 22.132812 C 20.449219 22.144531 20.382812 22.148438 20.308594 22.160156 C 20.34375 22.476562 20.378906 22.785156 20.414062 23.101562 C 20.492188 23.09375 20.558594 23.085938 20.640625 23.078125 Z M 13.382812 22.839844 C 13.382812 23.160156 13.382812 23.464844 13.382812 23.78125 C 13.464844 23.78125 13.53125 23.78125 13.605469 23.78125 C 13.605469 23.460938 13.605469 23.152344 13.605469 22.839844 C 13.527344 22.839844 13.464844 22.839844 13.382812 22.839844 Z M 13.382812 22.839844 " fill-opacity="1" fill-rule="nonzero"/><path fill="#267048" d="M 14.347656 16.070312 C 14.347656 16.390625 14.347656 16.710938 14.347656 17.054688 C 14.378906 17.023438 14.398438 17.011719 14.414062 16.992188 C 14.527344 16.855469 14.667969 16.761719 14.816406 16.667969 C 15.195312 16.433594 15.601562 16.257812 16.015625 16.105469 C 16.238281 16.027344 16.457031 15.949219 16.675781 15.867188 C 16.691406 15.863281 16.710938 15.851562 16.726562 15.847656 C 16.804688 15.828125 16.835938 15.78125 16.832031 15.699219 C 16.824219 15.441406 16.832031 15.179688 16.832031 14.925781 C 16.832031 14.222656 16.832031 13.523438 16.832031 12.820312 C 16.832031 12.71875 16.855469 12.648438 16.917969 12.566406 C 17.285156 12.109375 17.648438 11.640625 18.019531 11.179688 C 18.050781 11.136719 18.070312 11.085938 18.132812 11.078125 C 18.15625 11.160156 18.167969 16.484375 18.140625 16.652344 C 18.0625 16.667969 17.984375 16.679688 17.902344 16.683594 C 17.765625 16.691406 17.632812 16.710938 17.5 16.734375 C 17.132812 16.796875 16.769531 16.890625 16.421875 17.023438 C 15.820312 17.253906 15.289062 17.578125 14.855469 18.054688 C 14.601562 18.335938 14.410156 18.648438 14.296875 19.011719 C 14.289062 19.035156 14.28125 19.054688 14.273438 19.082031 C 14.269531 19.089844 14.265625 19.101562 14.253906 19.109375 C 13.9375 19.109375 13.625 19.109375 13.300781 19.109375 C 13.28125 19.035156 13.261719 18.953125 13.234375 18.875 C 13.109375 18.480469 12.886719 18.140625 12.601562 17.84375 C 12.191406 17.429688 11.703125 17.128906 11.160156 16.921875 C 10.855469 16.796875 10.539062 16.710938 10.214844 16.648438 C 10.019531 16.613281 9.824219 16.59375 9.632812 16.5625 C 9.617188 16.5625 9.601562 16.554688 9.585938 16.550781 C 9.585938 14.730469 9.585938 12.914062 9.585938 11.070312 C 9.621094 11.109375 9.644531 11.125 9.667969 11.148438 C 9.988281 11.539062 10.316406 11.933594 10.640625 12.328125 C 10.644531 12.332031 10.648438 12.339844 10.65625 12.347656 C 10.714844 12.425781 10.804688 12.492188 10.835938 12.582031 C 10.863281 12.667969 10.84375 12.773438 10.84375 12.871094 C 10.84375 13.777344 10.84375 14.679688 10.84375 15.582031 C 10.84375 15.664062 10.84375 15.742188 10.84375 15.824219 C 11.058594 15.851562 11.273438 15.894531 11.480469 15.976562 C 11.859375 16.128906 12.210938 16.324219 12.550781 16.554688 C 12.746094 16.691406 12.9375 16.816406 13.132812 16.945312 C 13.152344 16.957031 13.164062 16.976562 13.183594 16.992188 C 13.234375 17.035156 13.285156 17.078125 13.347656 17.125 C 13.347656 16.761719 13.347656 16.414062 13.347656 16.074219 C 13.230469 16.007812 13.113281 15.949219 13.011719 15.878906 C 12.785156 15.71875 12.640625 15.503906 12.589844 15.226562 C 12.542969 14.960938 12.636719 14.746094 12.785156 14.546875 C 12.976562 14.296875 13.234375 14.164062 13.53125 14.097656 C 13.625 14.078125 13.71875 14.0625 13.808594 14.050781 C 13.835938 14.046875 13.859375 14.046875 13.890625 14.050781 C 14.101562 14.082031 14.3125 14.109375 14.503906 14.203125 C 14.746094 14.320312 14.957031 14.476562 15.070312 14.730469 C 15.121094 14.84375 15.15625 14.964844 15.175781 15.089844 C 15.1875 15.160156 15.15625 15.242188 15.136719 15.320312 C 15.054688 15.632812 14.847656 15.835938 14.574219 15.988281 C 14.484375 16.011719 14.414062 16.042969 14.347656 16.070312 Z M 14.347656 16.070312 " fill-opacity="1" fill-rule="nonzero"/><path fill="#267048" d="M 12.058594 8.199219 C 12.277344 8.085938 12.476562 7.976562 12.691406 7.871094 C 12.730469 7.921875 12.773438 7.976562 12.8125 8.035156 C 12.863281 8.113281 12.914062 8.1875 12.953125 8.265625 C 12.984375 8.316406 13.027344 8.316406 13.066406 8.308594 C 13.148438 8.285156 13.230469 8.234375 13.308594 8.234375 C 13.382812 8.234375 13.441406 8.199219 13.511719 8.183594 C 13.511719 8.019531 13.511719 7.855469 13.511719 7.691406 C 13.59375 7.664062 14.085938 7.660156 14.25 7.679688 C 14.25 7.839844 14.25 8.003906 14.25 8.171875 C 14.421875 8.246094 14.601562 8.261719 14.773438 8.316406 C 14.871094 8.164062 14.964844 8.019531 15.070312 7.867188 C 15.285156 7.976562 15.492188 8.085938 15.710938 8.199219 C 15.605469 8.359375 15.515625 8.507812 15.417969 8.65625 C 15.546875 8.769531 15.667969 8.882812 15.796875 8.996094 C 15.964844 8.90625 16.128906 8.824219 16.304688 8.734375 C 16.429688 8.925781 16.546875 9.113281 16.683594 9.3125 C 16.511719 9.40625 16.347656 9.492188 16.175781 9.585938 C 16.222656 9.734375 16.261719 9.882812 16.308594 10.046875 C 16.492188 10.046875 16.6875 10.046875 16.890625 10.046875 C 16.90625 10.273438 16.902344 10.488281 16.898438 10.710938 C 16.691406 10.734375 16.496094 10.707031 16.308594 10.726562 C 16.261719 10.882812 16.214844 11.027344 16.167969 11.183594 C 16.332031 11.273438 16.503906 11.359375 16.675781 11.453125 C 16.558594 11.640625 16.429688 11.832031 16.304688 12.035156 C 16.132812 11.949219 15.964844 11.863281 15.796875 11.773438 C 15.667969 11.886719 15.546875 11.996094 15.417969 12.113281 C 15.515625 12.265625 15.617188 12.425781 15.710938 12.574219 C 15.5 12.683594 15.285156 12.796875 15.0625 12.910156 C 14.988281 12.785156 14.90625 12.664062 14.824219 12.535156 C 14.800781 12.507812 14.789062 12.472656 14.761719 12.457031 C 14.746094 12.445312 14.710938 12.476562 14.683594 12.484375 C 14.546875 12.511719 14.410156 12.539062 14.253906 12.570312 C 14.253906 12.738281 14.253906 12.914062 14.253906 13.082031 C 14.136719 13.113281 13.605469 13.109375 13.507812 13.078125 C 13.507812 12.914062 13.507812 12.738281 13.507812 12.582031 C 13.328125 12.535156 13.164062 12.492188 12.988281 12.453125 C 12.894531 12.59375 12.796875 12.75 12.691406 12.902344 C 12.492188 12.800781 12.292969 12.703125 12.097656 12.601562 C 12.082031 12.59375 12.078125 12.570312 12.0625 12.550781 C 12.15625 12.40625 12.246094 12.261719 12.339844 12.113281 C 12.21875 12 12.097656 11.894531 11.964844 11.769531 C 11.828125 11.839844 11.683594 11.914062 11.539062 11.992188 C 11.460938 12.035156 11.453125 12.035156 11.40625 11.964844 C 11.300781 11.796875 11.191406 11.625 11.082031 11.453125 C 11.25 11.359375 11.417969 11.273438 11.585938 11.179688 C 11.539062 11.03125 11.488281 10.882812 11.4375 10.722656 C 11.25 10.722656 11.058594 10.722656 10.863281 10.722656 C 10.863281 10.496094 10.863281 10.28125 10.863281 10.054688 C 11.054688 10.054688 11.242188 10.054688 11.4375 10.054688 C 11.488281 9.898438 11.535156 9.75 11.585938 9.585938 C 11.417969 9.492188 11.25 9.40625 11.082031 9.3125 C 11.191406 9.132812 11.300781 8.96875 11.40625 8.804688 C 11.4375 8.757812 11.460938 8.734375 11.527344 8.769531 C 11.664062 8.851562 11.8125 8.917969 11.960938 8.996094 C 12.082031 8.882812 12.207031 8.769531 12.328125 8.65625 C 12.246094 8.507812 12.148438 8.359375 12.058594 8.199219 Z M 15.75 11.015625 L 15.75 11.011719 C 15.800781 10.953125 15.820312 10.886719 15.816406 10.808594 L 15.816406 10.804688 C 15.832031 10.78125 15.851562 10.753906 15.859375 10.726562 C 15.902344 10.4375 15.910156 10.148438 15.8125 9.867188 C 15.765625 9.726562 15.695312 9.59375 15.632812 9.460938 C 15.628906 9.449219 15.617188 9.445312 15.613281 9.433594 C 15.617188 9.363281 15.589844 9.300781 15.535156 9.253906 C 15.484375 9.214844 15.425781 9.171875 15.375 9.136719 C 15.332031 9.105469 15.285156 9.078125 15.242188 9.046875 C 15.242188 9.039062 15.242188 9.035156 15.238281 9.035156 C 15.121094 8.949219 15.011719 8.835938 14.882812 8.773438 C 14.660156 8.671875 14.429688 8.570312 14.171875 8.5625 C 13.976562 8.558594 13.785156 8.53125 13.59375 8.546875 C 13.296875 8.574219 13.015625 8.671875 12.757812 8.824219 C 12.554688 8.949219 12.367188 9.089844 12.222656 9.292969 C 12.15625 9.382812 12.09375 9.476562 12.027344 9.570312 C 11.917969 9.628906 11.882812 9.738281 11.867188 9.855469 C 11.851562 9.964844 11.84375 10.078125 11.8125 10.179688 C 11.78125 10.292969 11.769531 10.40625 11.777344 10.519531 C 11.785156 10.636719 11.8125 10.75 11.910156 10.832031 C 11.929688 10.871094 11.949219 10.914062 11.964844 10.953125 C 12.128906 11.410156 12.433594 11.738281 12.863281 11.960938 C 13.332031 12.199219 13.828125 12.257812 14.347656 12.144531 C 14.714844 12.0625 15.046875 11.898438 15.324219 11.632812 C 15.5 11.46875 15.628906 11.265625 15.730469 11.054688 C 15.738281 11.042969 15.746094 11.03125 15.75 11.015625 Z M 15.75 11.015625 " fill-opacity="1" fill-rule="nonzero"/><g clip-path="url(#5c10d31879)"><path fill="#267048" d="M 8.089844 26.886719 C 8.089844 26.851562 8.089844 26.816406 8.089844 26.78125 C 8.089844 26.355469 8.089844 25.929688 8.089844 25.503906 C 8.089844 25.476562 8.089844 25.453125 8.089844 25.421875 C 8.09375 25.355469 8.121094 25.324219 8.1875 25.324219 C 8.320312 25.324219 8.453125 25.324219 8.585938 25.324219 C 8.648438 25.324219 8.679688 25.347656 8.679688 25.410156 C 8.679688 25.476562 8.679688 25.542969 8.679688 25.609375 C 8.679688 26.359375 8.679688 27.109375 8.679688 27.863281 C 8.679688 27.882812 8.679688 27.910156 8.679688 27.929688 C 8.679688 28.027344 8.664062 28.042969 8.566406 28.046875 C 8.402344 28.046875 8.238281 28.046875 8.070312 28.046875 C 7.75 27.535156 7.433594 27.023438 7.101562 26.484375 C 7.097656 26.535156 7.089844 26.558594 7.089844 26.589844 C 7.089844 27.027344 7.089844 27.46875 7.089844 27.902344 C 7.089844 28.039062 7.082031 28.046875 6.949219 28.046875 C 6.835938 28.046875 6.726562 28.046875 6.613281 28.046875 C 6.511719 28.046875 6.496094 28.03125 6.496094 27.929688 C 6.496094 27.664062 6.496094 27.394531 6.496094 27.128906 C 6.496094 26.585938 6.496094 26.042969 6.496094 25.496094 C 6.496094 25.472656 6.496094 25.445312 6.496094 25.414062 C 6.503906 25.347656 6.523438 25.328125 6.589844 25.324219 C 6.742188 25.320312 6.890625 25.324219 7.046875 25.324219 C 7.089844 25.324219 7.113281 25.355469 7.132812 25.386719 C 7.21875 25.527344 7.304688 25.671875 7.394531 25.8125 C 7.597656 26.144531 7.796875 26.472656 8.003906 26.804688 C 8.019531 26.835938 8.039062 26.863281 8.058594 26.894531 C 8.074219 26.894531 8.078125 26.886719 8.089844 26.886719 Z M 8.089844 26.886719 " fill-opacity="1" fill-rule="nonzero"/></g><g clip-path="url(#a1a9446cb5)"><path fill="#267048" d="M 11.042969 28.046875 C 10.96875 27.84375 10.890625 27.652344 10.820312 27.457031 C 10.496094 27.457031 10.175781 27.457031 9.839844 27.457031 C 9.769531 27.652344 9.699219 27.847656 9.621094 28.046875 C 9.429688 28.046875 9.246094 28.046875 9.058594 28.046875 C 9 28.046875 8.976562 28 8.992188 27.945312 C 8.996094 27.917969 9.007812 27.894531 9.015625 27.867188 C 9.335938 27.058594 9.644531 26.246094 9.964844 25.429688 C 9.980469 25.394531 9.996094 25.363281 10.011719 25.324219 C 10.21875 25.324219 10.425781 25.324219 10.632812 25.324219 C 10.660156 25.390625 10.691406 25.453125 10.714844 25.519531 C 11.027344 26.296875 11.335938 27.078125 11.652344 27.859375 C 11.710938 27.996094 11.699219 28.046875 11.527344 28.042969 C 11.371094 28.042969 11.214844 28.046875 11.042969 28.046875 Z M 10.609375 26.902344 C 10.511719 26.648438 10.425781 26.402344 10.332031 26.160156 C 10.328125 26.160156 10.316406 26.160156 10.3125 26.160156 C 10.226562 26.40625 10.132812 26.648438 10.039062 26.902344 C 10.234375 26.902344 10.410156 26.902344 10.609375 26.902344 Z M 10.609375 26.902344 " fill-opacity="1" fill-rule="nonzero"/></g><path fill="#267048" d="M 13.941406 0.328125 C 14.003906 0.328125 14.039062 0.324219 14.074219 0.328125 C 14.535156 0.378906 14.925781 0.570312 15.234375 0.917969 C 15.402344 1.109375 15.53125 1.335938 15.570312 1.589844 C 15.601562 1.765625 15.640625 1.941406 15.621094 2.125 C 15.574219 2.550781 15.390625 2.910156 15.078125 3.195312 C 14.859375 3.402344 14.601562 3.550781 14.3125 3.621094 C 13.585938 3.800781 12.949219 3.632812 12.441406 3.070312 C 12.296875 2.910156 12.1875 2.71875 12.144531 2.488281 C 12.164062 2.507812 12.1875 2.519531 12.195312 2.535156 C 12.507812 2.925781 12.921875 3.101562 13.414062 3.085938 C 14.082031 3.070312 14.675781 2.621094 14.839844 1.972656 C 14.925781 1.636719 14.878906 1.320312 14.722656 1.011719 C 14.5625 0.703125 14.3125 0.5 14 0.367188 C 13.988281 0.359375 13.976562 0.355469 13.96875 0.351562 C 13.96875 0.355469 13.964844 0.351562 13.941406 0.328125 Z M 13.941406 0.328125 " fill-opacity="1" fill-rule="nonzero"/><g clip-path="url(#de2ca4a517)"><path fill="#267048" d="M 21.21875 27.160156 C 21.136719 27.6875 20.726562 28.0625 20.210938 28.089844 C 20.050781 28.097656 19.890625 28.097656 19.734375 28.054688 C 19.277344 27.917969 18.996094 27.613281 18.882812 27.15625 C 18.800781 26.820312 18.8125 26.484375 18.910156 26.148438 C 19.058594 25.636719 19.484375 25.304688 20.027344 25.277344 C 20.324219 25.261719 20.597656 25.320312 20.84375 25.503906 C 21.023438 25.636719 21.132812 25.820312 21.199219 26.035156 C 21.21875 26.101562 21.203125 26.140625 21.136719 26.160156 C 20.988281 26.195312 20.839844 26.230469 20.691406 26.261719 C 20.621094 26.277344 20.605469 26.261719 20.574219 26.175781 C 20.527344 26.035156 20.441406 25.933594 20.308594 25.878906 C 20.054688 25.773438 19.714844 25.839844 19.570312 26.164062 C 19.511719 26.296875 19.492188 26.4375 19.488281 26.574219 C 19.476562 26.785156 19.488281 26.996094 19.566406 27.191406 C 19.671875 27.460938 19.949219 27.597656 20.226562 27.515625 C 20.34375 27.476562 20.441406 27.410156 20.496094 27.304688 C 20.539062 27.226562 20.5625 27.144531 20.597656 27.0625 C 20.625 27 20.65625 26.976562 20.710938 26.996094 C 20.875 27.046875 21.042969 27.105469 21.21875 27.160156 Z M 21.21875 27.160156 " fill-opacity="1" fill-rule="nonzero"/></g><g clip-path="url(#e9da8a11cc)"><path fill="#267048" d="M 13.03125 28.042969 C 12.816406 28.042969 12.609375 28.042969 12.402344 28.042969 C 12.390625 28.023438 12.378906 28 12.371094 27.980469 C 12.074219 27.144531 11.777344 26.3125 11.480469 25.476562 C 11.472656 25.457031 11.464844 25.4375 11.460938 25.410156 C 11.449219 25.359375 11.480469 25.320312 11.53125 25.320312 C 11.71875 25.320312 11.910156 25.320312 12.105469 25.320312 C 12.308594 25.917969 12.515625 26.519531 12.730469 27.144531 C 12.847656 26.820312 12.9375 26.519531 13.035156 26.222656 C 13.132812 25.921875 13.234375 25.625 13.332031 25.324219 C 13.523438 25.324219 13.707031 25.324219 13.886719 25.324219 C 13.953125 25.324219 13.976562 25.363281 13.964844 25.429688 C 13.957031 25.453125 13.953125 25.46875 13.941406 25.484375 C 13.644531 26.308594 13.355469 27.132812 13.054688 27.964844 C 13.054688 27.992188 13.046875 28.011719 13.03125 28.042969 Z M 13.03125 28.042969 " fill-opacity="1" fill-rule="nonzero"/></g><g clip-path="url(#332b009fee)"><path fill="#267048" d="M 14.84375 25.871094 C 14.617188 25.871094 14.414062 25.871094 14.207031 25.871094 C 14.082031 25.871094 14.066406 25.855469 14.066406 25.730469 C 14.066406 25.632812 14.066406 25.539062 14.066406 25.441406 C 14.066406 25.347656 14.089844 25.328125 14.179688 25.324219 C 14.289062 25.324219 14.398438 25.324219 14.511719 25.324219 C 15.03125 25.324219 15.558594 25.324219 16.082031 25.324219 C 16.109375 25.324219 16.132812 25.324219 16.164062 25.324219 C 16.222656 25.328125 16.25 25.355469 16.25 25.410156 C 16.25 25.535156 16.257812 25.65625 16.25 25.773438 C 16.25 25.847656 16.222656 25.867188 16.140625 25.867188 C 15.960938 25.867188 15.78125 25.867188 15.601562 25.867188 C 15.566406 25.867188 15.523438 25.867188 15.472656 25.867188 C 15.472656 25.917969 15.472656 25.960938 15.472656 25.996094 C 15.472656 26.617188 15.472656 27.238281 15.472656 27.859375 C 15.472656 27.882812 15.472656 27.910156 15.472656 27.941406 C 15.46875 28.023438 15.453125 28.042969 15.371094 28.042969 C 15.226562 28.042969 15.085938 28.042969 14.9375 28.042969 C 14.863281 28.042969 14.84375 28.015625 14.839844 27.945312 C 14.839844 27.917969 14.839844 27.894531 14.839844 27.863281 C 14.839844 27.242188 14.839844 26.621094 14.839844 26 C 14.84375 25.964844 14.84375 25.921875 14.84375 25.871094 Z M 14.84375 25.871094 " fill-opacity="1" fill-rule="nonzero"/></g><g clip-path="url(#b9bd205fd3)"><path fill="#267048" d="M 17.808594 25.867188 C 17.808594 25.929688 17.808594 25.96875 17.808594 26.011719 C 17.808594 26.632812 17.808594 27.253906 17.808594 27.875 C 17.808594 27.902344 17.808594 27.933594 17.808594 27.964844 C 17.808594 28.015625 17.78125 28.046875 17.730469 28.046875 C 17.578125 28.046875 17.417969 28.046875 17.265625 28.046875 C 17.214844 28.046875 17.1875 28.015625 17.183594 27.972656 C 17.183594 27.941406 17.183594 27.910156 17.183594 27.878906 C 17.183594 27.253906 17.183594 26.632812 17.183594 26.007812 C 17.183594 25.964844 17.183594 25.921875 17.183594 25.871094 C 17.121094 25.871094 17.074219 25.871094 17.023438 25.871094 C 16.855469 25.871094 16.691406 25.871094 16.523438 25.871094 C 16.421875 25.871094 16.40625 25.851562 16.40625 25.75 C 16.40625 25.648438 16.40625 25.542969 16.40625 25.441406 C 16.40625 25.347656 16.425781 25.324219 16.519531 25.324219 C 17.167969 25.324219 17.820312 25.324219 18.46875 25.324219 C 18.566406 25.324219 18.585938 25.34375 18.585938 25.445312 C 18.585938 25.550781 18.585938 25.652344 18.585938 25.753906 C 18.585938 25.847656 18.566406 25.867188 18.472656 25.867188 C 18.292969 25.867188 18.117188 25.867188 17.9375 25.867188 C 17.894531 25.867188 17.859375 25.867188 17.808594 25.867188 Z M 17.808594 25.867188 " fill-opacity="1" fill-rule="nonzero"/></g><path fill="#fbe605" d="M 9.441406 10.050781 C 9.722656 10.046875 10.019531 10.066406 10.308594 10.144531 C 10.402344 10.167969 10.5 10.210938 10.589844 10.261719 C 10.6875 10.328125 10.679688 10.40625 10.578125 10.464844 C 10.496094 10.511719 10.410156 10.554688 10.316406 10.574219 C 9.714844 10.71875 9.105469 10.71875 8.5 10.570312 C 8.417969 10.546875 8.335938 10.511719 8.265625 10.464844 C 8.167969 10.40625 8.167969 10.324219 8.265625 10.257812 C 8.332031 10.214844 8.40625 10.183594 8.480469 10.160156 C 8.738281 10.082031 9.023438 10.050781 9.441406 10.050781 Z M 9.441406 10.050781 " fill-opacity="1" fill-rule="nonzero"/><path fill="#fbe604" d="M 9.140625 7.761719 C 9.34375 7.773438 9.535156 7.835938 9.71875 7.90625 C 10.09375 8.054688 10.449219 8.238281 10.769531 8.496094 C 10.863281 8.574219 10.945312 8.671875 11.027344 8.761719 C 11.054688 8.789062 11.066406 8.828125 11.074219 8.867188 C 11.089844 8.933594 11.058594 8.984375 11 9 C 10.9375 9.015625 10.871094 9.015625 10.808594 9.007812 C 10.578125 8.988281 10.363281 8.90625 10.160156 8.816406 C 9.832031 8.671875 9.511719 8.5 9.238281 8.277344 C 9.171875 8.21875 9.105469 8.15625 9.046875 8.097656 C 9.011719 8.054688 8.976562 8.007812 8.949219 7.957031 C 8.902344 7.867188 8.945312 7.792969 9.046875 7.773438 C 9.078125 7.761719 9.113281 7.769531 9.140625 7.761719 Z M 9.140625 7.761719 " fill-opacity="1" fill-rule="nonzero"/><path fill="#fbe604" d="M 16.859375 9.019531 C 16.855469 9.019531 16.855469 9.019531 16.851562 9.019531 C 16.785156 9.015625 16.707031 9.015625 16.671875 8.941406 C 16.636719 8.871094 16.675781 8.808594 16.71875 8.753906 C 16.832031 8.59375 16.988281 8.476562 17.148438 8.367188 C 17.5 8.132812 17.875 7.9375 18.285156 7.824219 C 18.390625 7.792969 18.511719 7.785156 18.617188 7.769531 C 18.648438 7.761719 18.679688 7.769531 18.710938 7.777344 C 18.808594 7.804688 18.84375 7.867188 18.796875 7.957031 C 18.765625 8.019531 18.71875 8.082031 18.671875 8.132812 C 18.53125 8.285156 18.355469 8.402344 18.183594 8.515625 C 17.894531 8.695312 17.59375 8.84375 17.265625 8.941406 C 17.136719 8.984375 17 9.003906 16.867188 9.035156 C 16.859375 9.023438 16.859375 9.019531 16.859375 9.019531 Z M 16.859375 9.019531 " fill-opacity="1" fill-rule="nonzero"/><path fill="#fbe604" d="M 17.085938 10.308594 C 17.148438 10.226562 17.234375 10.195312 17.328125 10.164062 C 17.566406 10.085938 17.8125 10.054688 18.0625 10.050781 C 18.414062 10.039062 18.761719 10.039062 19.105469 10.121094 C 19.199219 10.148438 19.296875 10.179688 19.394531 10.21875 C 19.453125 10.246094 19.519531 10.28125 19.523438 10.355469 C 19.527344 10.4375 19.460938 10.476562 19.402344 10.503906 C 19.289062 10.542969 19.171875 10.589844 19.050781 10.609375 C 18.5 10.710938 17.941406 10.710938 17.394531 10.578125 C 17.351562 10.570312 17.3125 10.554688 17.277344 10.542969 C 17.171875 10.503906 17.085938 10.453125 17.085938 10.308594 Z M 17.085938 10.308594 " fill-opacity="1" fill-rule="nonzero"/><path fill="#fbe604" d="M 16.777344 6.136719 C 16.769531 6.3125 16.703125 6.476562 16.628906 6.640625 C 16.457031 7.007812 16.238281 7.351562 15.949219 7.644531 C 15.863281 7.730469 15.761719 7.808594 15.652344 7.871094 C 15.507812 7.949219 15.40625 7.882812 15.421875 7.71875 C 15.433594 7.589844 15.464844 7.460938 15.507812 7.34375 C 15.683594 6.90625 15.929688 6.515625 16.261719 6.183594 C 16.34375 6.101562 16.441406 6.027344 16.542969 5.972656 C 16.6875 5.886719 16.785156 5.953125 16.777344 6.136719 Z M 16.777344 6.136719 " fill-opacity="1" fill-rule="nonzero"/><path fill="#fbe604" d="M 10.984375 6.15625 C 10.984375 6.132812 10.984375 6.105469 10.988281 6.082031 C 11.003906 5.992188 11.070312 5.945312 11.15625 5.976562 C 11.234375 6.007812 11.3125 6.042969 11.371094 6.09375 C 11.566406 6.246094 11.71875 6.433594 11.859375 6.632812 C 12.03125 6.886719 12.191406 7.152344 12.285156 7.449219 C 12.3125 7.550781 12.339844 7.65625 12.34375 7.761719 C 12.351562 7.910156 12.246094 7.972656 12.121094 7.90625 C 12.023438 7.855469 11.925781 7.789062 11.84375 7.707031 C 11.472656 7.335938 11.199219 6.910156 11.027344 6.417969 C 11 6.335938 10.988281 6.25 10.96875 6.164062 C 10.976562 6.15625 10.976562 6.15625 10.984375 6.15625 Z M 10.984375 6.15625 " fill-opacity="1" fill-rule="nonzero"/><path fill="#fbe605" d="M 14.222656 6.269531 C 14.21875 6.550781 14.199219 6.835938 14.105469 7.101562 C 14.085938 7.164062 14.054688 7.230469 14.019531 7.285156 C 13.933594 7.414062 13.835938 7.414062 13.746094 7.285156 C 13.695312 7.207031 13.660156 7.125 13.636719 7.039062 C 13.539062 6.6875 13.523438 6.320312 13.554688 5.953125 C 13.570312 5.746094 13.605469 5.546875 13.679688 5.351562 C 13.703125 5.300781 13.734375 5.25 13.769531 5.203125 C 13.839844 5.121094 13.921875 5.117188 13.988281 5.203125 C 14.035156 5.257812 14.070312 5.332031 14.097656 5.402344 C 14.199219 5.683594 14.21875 5.976562 14.222656 6.269531 Z M 14.222656 6.269531 " fill-opacity="1" fill-rule="nonzero"/><path fill="#267048" d="M 13.542969 1.679688 C 13.53125 1.847656 13.523438 2.015625 13.507812 2.210938 C 13.375 2.070312 13.300781 1.898438 13.183594 1.769531 C 13.011719 1.8125 12.839844 1.859375 12.640625 1.910156 C 12.769531 1.753906 12.882812 1.621094 13 1.484375 C 12.902344 1.339844 12.804688 1.195312 12.707031 1.050781 C 12.714844 1.046875 12.714844 1.042969 12.71875 1.03125 C 12.886719 1.089844 13.054688 1.148438 13.234375 1.210938 C 13.355469 1.078125 13.472656 0.945312 13.585938 0.816406 C 13.589844 0.820312 13.59375 0.820312 13.605469 0.828125 C 13.59375 0.996094 13.589844 1.160156 13.578125 1.335938 C 13.742188 1.394531 13.902344 1.453125 14.058594 1.507812 C 13.894531 1.601562 13.71875 1.605469 13.542969 1.679688 Z M 13.542969 1.679688 " fill-opacity="1" fill-rule="nonzero"/><path fill="#267048" d="M 16.097656 10.363281 C 16.097656 10.625 16.039062 10.875 15.925781 11.113281 C 15.8125 11.355469 15.648438 11.566406 15.4375 11.75 C 15.226562 11.933594 14.984375 12.074219 14.707031 12.175781 C 14.429688 12.273438 14.144531 12.324219 13.84375 12.324219 C 13.546875 12.324219 13.257812 12.273438 12.984375 12.175781 C 12.707031 12.074219 12.464844 11.933594 12.253906 11.75 C 12.039062 11.566406 11.878906 11.355469 11.765625 11.113281 C 11.648438 10.875 11.59375 10.625 11.59375 10.363281 C 11.59375 10.105469 11.648438 9.855469 11.765625 9.613281 C 11.878906 9.375 12.039062 9.160156 12.253906 8.976562 C 12.464844 8.792969 12.707031 8.652344 12.984375 8.554688 C 13.257812 8.453125 13.546875 8.402344 13.84375 8.402344 C 14.144531 8.402344 14.429688 8.453125 14.707031 8.554688 C 14.984375 8.652344 15.226562 8.792969 15.4375 8.976562 C 15.648438 9.160156 15.8125 9.375 15.925781 9.613281 C 16.039062 9.855469 16.097656 10.105469 16.097656 10.363281 Z M 16.097656 10.363281 " fill-opacity="1" fill-rule="nonzero"/><path fill="#fbe605" d="M 15.859375 10.363281 C 15.859375 10.609375 15.804688 10.84375 15.703125 11.066406 C 15.597656 11.292969 15.453125 11.492188 15.261719 11.664062 C 15.070312 11.835938 14.847656 11.96875 14.597656 12.0625 C 14.351562 12.152344 14.089844 12.199219 13.820312 12.199219 C 13.550781 12.199219 13.289062 12.152344 13.039062 12.0625 C 12.789062 11.96875 12.570312 11.835938 12.378906 11.664062 C 12.1875 11.492188 12.039062 11.292969 11.9375 11.066406 C 11.832031 10.84375 11.78125 10.609375 11.78125 10.363281 C 11.78125 10.121094 11.832031 9.886719 11.9375 9.660156 C 12.039062 9.4375 12.1875 9.238281 12.378906 9.066406 C 12.570312 8.894531 12.789062 8.761719 13.039062 8.667969 C 13.289062 8.574219 13.550781 8.527344 13.820312 8.527344 C 14.089844 8.527344 14.351562 8.574219 14.597656 8.667969 C 14.847656 8.761719 15.070312 8.894531 15.261719 9.066406 C 15.453125 9.238281 15.597656 9.4375 15.703125 9.660156 C 15.804688 9.886719 15.859375 10.121094 15.859375 10.363281 Z M 15.859375 10.363281 " fill-opacity="1" fill-rule="nonzero"/><path fill="#267048" d="M 15.730469 11.054688 C 15.734375 11.042969 15.738281 11.03125 15.746094 11.015625 C 15.746094 11.03125 15.738281 11.042969 15.730469 11.054688 Z M 15.730469 11.054688 " fill-opacity="1" fill-rule="nonzero"/><path fill="#267048" d="M 15.636719 9.460938 C 15.632812 9.449219 15.621094 9.445312 15.617188 9.433594 C 15.621094 9.441406 15.628906 9.449219 15.636719 9.460938 Z M 15.636719 9.460938 " fill-opacity="1" fill-rule="nonzero"/><path fill="#267048" d="M 12.675781 23.210938 C 12.675781 23.148438 12.675781 23.097656 12.675781 23.035156 C 12.757812 23.035156 12.835938 23.03125 12.914062 23.035156 C 12.960938 23.035156 12.988281 23.066406 12.988281 23.117188 C 12.996094 23.175781 12.960938 23.203125 12.90625 23.210938 C 12.835938 23.214844 12.765625 23.210938 12.675781 23.210938 Z M 12.675781 23.210938 " fill-opacity="1" fill-rule="nonzero"/><path fill="#267048" d="M 7.511719 22.410156 C 7.597656 22.417969 7.671875 22.429688 7.746094 22.441406 C 7.796875 22.449219 7.824219 22.480469 7.820312 22.539062 C 7.8125 22.59375 7.777344 22.621094 7.726562 22.621094 C 7.648438 22.613281 7.578125 22.605469 7.492188 22.59375 C 7.496094 22.527344 7.5 22.476562 7.511719 22.410156 Z M 7.511719 22.410156 " fill-opacity="1" fill-rule="nonzero"/><path fill="#267048" d="M 6.585938 22.660156 C 6.625 22.578125 6.65625 22.511719 6.6875 22.449219 C 6.691406 22.449219 6.703125 22.449219 6.707031 22.457031 C 6.722656 22.523438 6.742188 22.589844 6.761719 22.675781 C 6.707031 22.667969 6.65625 22.667969 6.585938 22.660156 Z M 6.585938 22.660156 " fill-opacity="1" fill-rule="nonzero"/><g clip-path="url(#b9f349563a)"><path stroke-linecap="butt" transform="matrix(0.0512042, 0, 0, 0.0513018, 1.684171, -0.301661)" fill="none" stroke-linejoin="miter" d="M 551.014575 303.597706 L 1951.198468 303.597706 " stroke="#303030" stroke-width="2" stroke-opacity="1" stroke-miterlimit="10"/></g></svg>